<?xml version="1.0" encoding="UTF-8"?>
<svg xmlns="http://www.w3.org/2000/svg" viewBox="0 0 419.89 437.53">
  <defs>
    <style>
      .cls-1 {
        fill: #ffa8a7;
      }

      .cls-2 {
        fill: #b16668;
      }

      .cls-3 {
        fill: #27debf;
      }

      .cls-4 {
        fill: #263238;
      }

      .cls-5 {
        fill: #f0f0f0;
      }

      .cls-6 {
        fill: #37474f;
      }

      .cls-7, .cls-8 {
        fill: #fff;
      }

      .cls-9 {
        fill: #e0e0e0;
      }

      .cls-10 {
        fill: #455a64;
      }

      .cls-11 {
        opacity: .2;
      }

      .cls-12 {
        fill: #ebebeb;
      }

      .cls-13 {
        fill: #f28f8f;
      }

      .cls-14 {
        fill: #f5f5f5;
      }

      .cls-15 {
        opacity: .1;
      }

      .cls-16 {
        fill: #9a4a4d;
      }

      .cls-8 {
        opacity: .7;
      }
    </style>
  </defs>
  <g id="Shadows">
    <path id="Shadow" class="cls-12" d="M404.22,389.47c19.04,10.99,19.04,28.82,0,39.82s-49.92,10.99-68.96,0c-19.04-10.99-19.04-28.82,0-39.82,19.04-10.99,49.92-10.99,68.96,0Z"/>
    <path id="Shadow-2" data-name="Shadow" class="cls-12" d="M90.93,213.85c18.11,10.46,18.11,27.41,0,37.86-18.11,10.46-47.47,10.46-65.58,0-18.11-10.46-18.11-27.41,0-37.86,18.11-10.46,47.47-10.46,65.58,0Z"/>
    <path id="Shadow-3" data-name="Shadow" class="cls-12" d="M164.1,256.46c18.11,10.46,18.11,27.41,0,37.86-18.11,10.46-47.47,10.46-65.58,0-18.11-10.46-18.11-27.41,0-37.86s47.47-10.46,65.58,0Z"/>
    <path id="Shadow-4" data-name="Shadow" class="cls-12" d="M238.2,299.77c18.11,10.46,18.11,27.41,0,37.86s-47.47,10.46-65.58,0c-18.11-10.46-18.11-27.41,0-37.86,18.11-10.46,47.47-10.46,65.58,0Z"/>
    <path id="Shadow-5" data-name="Shadow" class="cls-12" d="M313.53,342.63c18.11,10.46,18.11,27.41,0,37.86-18.11,10.46-47.47,10.46-65.58,0-18.11-10.46-18.11-27.41,0-37.86,18.11-10.46,47.47-10.46,65.58,0Z"/>
  </g>
  <g id="Clouds">
    <g id="Clouds-2" data-name="Clouds">
      <path class="cls-12" d="M328.58,22.96l8.94,5.16c-.04-.4-.08-.8-.08-1.18v-2.59c0-4.61,3.23-6.48,7.23-4.17,1.62.93,3.1,2.41,4.31,4.14.65-5.79,5.2-7.95,10.72-4.76,5.97,3.45,10.81,11.83,10.81,18.72v3.87c0,1.79-.33,3.29-.92,4.49l7.42,4.29c2.21,1.28,4.01,4.39,4.01,6.94s-1.79,3.59-4.01,2.31l-48.43-27.96c-2.21-1.28-4.01-4.39-4.01-6.94s1.79-3.59,4.01-2.31Z"/>
      <path class="cls-12" d="M290.33,49l6.75,3.89c-.03-.3-.06-.6-.06-.89v-1.95c0-3.48,2.44-4.89,5.45-3.15,1.22.7,2.34,1.82,3.25,3.13.49-4.37,3.92-6,8.09-3.6,4.51,2.6,8.16,8.93,8.16,14.13v2.92c0,1.35-.25,2.48-.69,3.39l5.6,3.23c1.67.96,3.02,3.31,3.02,5.24s-1.35,2.71-3.02,1.75l-36.55-21.1c-1.67-.96-3.03-3.31-3.03-5.24s1.35-2.71,3.03-1.75Z"/>
    </g>
  </g>
  <g id="Plants">
    <g id="Plants-2" data-name="Plants">
      <g>
        <path class="cls-6" d="M387.41,395.99c2.42-2.87,8.94-5.46,17.1-6.02,8.16-.57,16.42-1.54,15.27-6.4-1.25-5.24-8.57-6.54-16.2-4.63-8.33,2.09-15.3,9.23-16.14,14.23l-.03,2.83Z"/>
        <path class="cls-7" d="M387.52,394.25c.21.03.43-.06.56-.25,7.87-11.66,22.2-11.65,26.52-10.33.3.09.63-.08.72-.38.09-.3-.08-.63-.38-.72-4.54-1.39-19.58-1.41-27.81,10.78-.18.26-.11.62.15.8.07.05.16.08.24.09Z"/>
      </g>
      <g>
        <path class="cls-10" d="M387.41,395.99s5.95-14.44,16.69-21.11c3.19-1.98,6.66-4.54,9.08-6.3,5.2-3.78,3.99-8.89-2.33-9.71-9.4-1.22-17.4,5.68-21.86,15.59-4.46,9.9-1.59,21.53-1.59,21.53Z"/>
        <path class="cls-7" d="M387.5,389.12c.28.04.56-.14.63-.43,4.25-17.69,19.23-24.73,23.09-25.14.31-.03.53-.31.5-.62-.03-.31-.31-.53-.62-.5-4.69.5-19.71,7.88-24.07,26-.07.3.11.61.42.68.02,0,.03,0,.05,0Z"/>
      </g>
    </g>
  </g>
  <g id="Character_5" data-name="Character 5">
    <g>
      <g>
        <path class="cls-1" d="M390.48,223.37c4.8-1.13,7.9,2.91,10.99,10.43,3.09,7.53,8.59,25.87,9.87,30.9.58,2.25-13.69,22.42-13.08,22.13.19-.09-5.57-9.73-5.57-9.73l7-13.4-4.99-12.18-4.23-28.15Z"/>
        <g>
          <path class="cls-4" d="M397.3,393.32c.65.25.81,1.48.91,3.94.07,1.86.47,5.11-1.71,5.76-2.18.65-5.38.32-6.77-1.44-1.74-2.19-2.92-4.12-5.41-6.79-2.16-2.32-4.5-4.48-5.37-7.73-.79-2.94-.13-4.21,1.87-5.07,2.76-1.17,7.09,2.66,9.25,3.27,1.86.52,6.58,7.81,7.23,8.06Z"/>
          <path class="cls-1" d="M397.3,389.34v4.72s-3.14,2.41-7.63.21c-.13-.29-.51-4.93-.51-4.93h8.15Z"/>
          <path class="cls-4" d="M374.81,409.38s.87,2.63,1.33,4.93c.37,1.83.9,4.88.26,6.25-.64,1.37-3.13,2.26-7,2.23-2.51-.02-6.41,1.68-9.08,3.17-2.76,1.54-5.76,1.55-8.68,1.2-3.44-.4-7.01-2.4-7.56-3.83-.56-1.43.16-2.11,8.27-5.57.07-.03,8.55-3.86,12.48-8.19l9.98-.2Z"/>
          <path class="cls-1" d="M374.81,406.11s-.01,2.24,0,3.52c.01,1.28-1.5,3.19-5.42,3.05-2.75-.1-4.67-.84-4.56-3.1v-3.27l9.98-.2Z"/>
          <path class="cls-3" d="M402.39,354.46c-.25-9.96-2.3-14.34-2.3-14.34,0,0,.76-12.31,2.42-27.38,2.52-22.94,1.36-27.39-3.17-37.71,0,0-38.62-3.91-39.8,12.13-1.47,19.99-1.64,55.43-1.11,62.49.53,7.06.52,5.75,2.24,20.04,1.36,11.3,4.16,36.61,4.16,36.61,5.12,2.77,9.98-.2,9.98-.2,0,0,3.16-32.14,2.83-40.28-.4-9.95-.97-12.48-.97-12.48,0,0,4.52-29.39,5.21-34.57,0,0,.63,9.28,1.16,16.34.53,7.06.49,9.93,1.97,24.54,1.17,11.45,3.99,30.98,3.99,30.98,4.57,1.93,8.42-.62,8.42-.62,0,0,5.16-27.48,4.96-35.55Z"/>
        </g>
        <polygon class="cls-1" points="370.71 218.17 372.52 233.09 385.64 231.91 384.14 215.34 370.71 218.17"/>
        <path class="cls-6" d="M398.43,230.59c-1.44-3.93-4.75-8.04-9.79-7.1-1.31.24-2.47.44-3.71.68-.11,3.44-6.59,5.22-13.05,3.13-1.94.56-3.72,1.12-5.33,1.7-4.62,1.65-6.47,9.32-6.58,22.15-.1,12.83-1.47,44.84-1.47,44.84l5.4,1.7,2.52-9.36,1.02,11.21c5.84,1.47,11.98,1.37,18.64-.09,13.88-3.03,18.2-10.52,18.2-10.52,0,0-2.86-12.89-11.05-25.53,6.96-18.5,7.33-26.99,5.19-32.82Z"/>
        <g>
          <path class="cls-4" d="M360.96,199.22s-2.75-5.22.99-11.09c4.4-6.92,12.9-8.09,22.96-5.4,4.99,1.34,11.96,6.64,12.59,16.2.48,7.38-20.1,12.82-19.63,17.88l-16.9-17.59Z"/>
          <path class="cls-13" d="M360.51,202.02s-2.79,4.48-2.4,4.93c.39.46,2.26.9,2.26.9l.14-5.83Z"/>
          <path class="cls-1" d="M369.03,187.84c-2.79,1.54-7.61,4.37-8.58,14.83-1,10.73,1.48,14.39,2.98,15.75,1.01.92,6.1,1.13,8.73.23,3.29-1.12,10.37-4.86,13.59-10.47,3.79-6.6,4.37-15.28-.29-18.55-6.56-4.6-14.06-3.08-16.42-1.78Z"/>
          <path class="cls-4" d="M369.02,189.1c-.7,1.98-2.66,6.65-2.96,12.32,0,0-2.56,0-3.77-.62,0,0-.06-4.5,1.15-7.05,0,0-1.68,2.69-2.2,6.68,0,0-2.26-.17-3.57-1.33-.97-4.81,2.04-14.73,10.55-16.31l.81,6.31Z"/>
          <path class="cls-4" d="M368.21,188.31s-2.2,9.83.92,15.91c0,0,1.63-3.86,4.93-2.85,3.33,1.01,3.14,5.41.61,7.73-2.53,2.32-5.08,1.22-5.08,1.22,0,0,1.51,4.14,4.91,7.41,0,0,9.78,4.36,18.25-5.2,7.68-8.67,6.26-23.8-5.51-27.37-11.77-3.57-19.02,3.14-19.02,3.14Z"/>
          <path class="cls-4" d="M400.76,210.45c2.32,2.46,1.88,6.64-.98,9.35-2.86,2.7-7.07,2.9-9.39.44s-1.88-6.64.98-9.35,7.07-2.9,9.39-.44Z"/>
          <path class="cls-4" d="M396.75,206.16c-1.21.39-1.88,1.69-1.49,2.9l4.39-1.41c-.39-1.21-1.69-1.88-2.9-1.49Z"/>
        </g>
      </g>
      <path class="cls-1" d="M333.35,252.64c-1.9-2.18-2.22-6.98-4.76-10.29-2.48-3.23-2.07-6.64-3.67-5.15-1.7,1.59-.4,6.9-.4,6.9,0,0-2.95,5.48-3.2,8.29-.25,2.8,7.17,9.85,7.17,9.85l4.86-9.6Z"/>
      <path class="cls-1" d="M324.93,243.72s-3.01,4.2-16.55-1.29c-3.74-1.52-1.22,6.52,3.37,9.85,4.24,3.08,9.56,4.04,13.81,6.91,0-.41-.63-15.48-.63-15.48Z"/>
      <path class="cls-1" d="M367.71,228.6c-3.86,1.34-7.23,2.9-10.83,9.66-4.63,8.69-13.04,25.72-13.04,25.72l-10.48-11.35s-1.53-2.15-4.36,2.54c-2.84,4.69-1.58,5.99-1.58,5.99,0,0,12.2,16.34,14.43,18.41s5.92.46,8.31-2.81c2.4-3.27,14.81-25.75,14.81-25.75,0,0,8.19-14.2,2.74-22.42Z"/>
      <path class="cls-11" d="M381.88,318.77l.73-7.81s5.67-.55,11.78-4.46c0,0-2.51,4.02-9.39,5.85l-1.55,7.6-.41,15.15-1.16-16.34Z"/>
      <path class="cls-4" d="M359.81,260.01s4.85-8.49,5.16-8.99l-5.55,21.53.39-12.54Z"/>
    </g>
  </g>
  <g id="Character_4" data-name="Character 4">
    <g>
      <g id="Character_boy" data-name="Character boy">
        <g>
          <path class="cls-2" d="M302.26,209.08c1.42,1.49,4.79,2.64,26.61,4.23,3.19.23,6.35-.03,9.37-1.23,2.92-1.16,5.5-3.18,7.26-5.79.4-.59.76-1.22.92-1.91.16-.69.1-1.46-.29-2.05-.39-.58-1.06-.93-1.74-1.12-1.43-.4-2.75-.08-4.09.44-2.02.78-3.55,1.05-3.4.64.15-.41,1.37-.78,2.62-2.19,1.2-1.35,1.57-3.39.76-4-.81-.61-.67-.48-2.11.72-1.45,1.2-3.1,1.81-5,3.65-1.68,1.63-2.4,2.27-4.42,3.07-2.19.87-4.26.61-10.34-.36-5.25-.84-7.27-1.14-9.79-2.54-2.71-4.12-9.25-21.52-12.09-26.3-3-5.05-9.1-5.2-9.1-5.2,0,0-.16,9.06,3.08,18.28,2.1,5.98,10.35,20.19,11.76,21.66Z"/>
          <path class="cls-10" d="M285.76,168.63s4.01-.8,7.32,1.29,5.46,5.93,7.56,10.75c2.55,5.86,5.64,13.69,5.64,13.69,0,0-3.84,4.28-11,4.98l-9.85-16.36.34-14.35Z"/>
        </g>
        <g id="Character_boy-2" data-name="Character boy">
          <g>
            <rect class="cls-2" x="262.48" y="341.85" width="8.5" height="14.55" transform="translate(533.46 698.25) rotate(180)"/>
            <polygon class="cls-2" points="286 345.51 294.49 345.81 294.92 330.41 286 330.11 286 345.51"/>
            <path class="cls-6" d="M258.86,233.2c0,8.12,1.43,55.33,1.43,55.33-.2,2.34-2.45,6.49-2.62,14.9-.25,12.2,4.44,45.7,4.44,45.7,0,0,4.13,2.41,9.46.19,0,0,3.85-45.41,5.38-57.48,1.33-10.54,3.58-39.17,3.58-39.17l4,34.4s-1.57,6.29-1.05,13.51c.4,5.59,1.97,40.17,1.97,40.17,0,0,4,2.71,9.81.75,0,0,5.99-49.3,6.09-54.43.11-5.84-2.22-65.48-2.22-65.48l-40.29,11.62Z"/>
            <path class="cls-5" d="M264.44,173.49c-1.87.84-3.35,2.36-4.1,4.26-.67,1.7-1.24,4.1-1.24,7.35v16.65l-.24,31.45c12.2,6.43,27.71,6.86,40.72-2.64,0,0-.73-40.48-.73-47.1,0-.3,0-.6-.02-.91-.47-9.46-9.78-15.95-18.95-13.59l-7.7,1.98-7.73,2.55h0Z"/>
            <g>
              <g>
                <circle class="cls-4" cx="286.27" cy="142.52" r="11.68" transform="translate(-16.93 244.16) rotate(-45)"/>
                <path class="cls-4" d="M266.08,150.82s1.89,8.89,2.65,10.35c.76,1.46,2.33,1.88,2.33,1.88l-.13-6.26-4.85-5.97Z"/>
                <path class="cls-4" d="M268.45,138.08s-2.04-.35-3.63,1.28c-1.56,1.59-.69,6.58,1.25,11.46l3.57.41-1.19-13.15Z"/>
                <path class="cls-2" d="M270.71,151.23c-.71.43-1.73-.95-2.62-1.87-.88-.92-3.76-2.18-5.2.84-1.46,3.08,1.27,7.16,3.53,7.87,3.91,1.23,4.49-1.28,4.49-1.28l.29,14.52h0c4.86,6.22,18.33,5.7,12.72-.8v-4.29s3.53.54,5.25.27c2.87-.44,4.68-2.71,5.55-5.82,1.4-4.99,1.93-9.02.74-18.84-1.3-10.76-13.82-10.88-20.58-6.62s-4.18,16.02-4.18,16.02Z"/>
                <path class="cls-4" d="M270.71,152.44c-.36,0-1.73-2.26-2.62-3.07-1.23-1.12.36-11.28.36-11.28,0,0-1.18-2.53,1.19-5.14,1.69-1.86,3.53-3.03,8.4-3.29,2.85-.15,7.41.3,9.98.47,4.81.33,6.59-.86,9.35-1.63,2.11-.59,2.35,7.04-2.99,9.57,0,0-1.74,1.12-6.31,1.68s-11.7-.11-12.67-.24c-1.33-.18-1.61,1.1-2.32,4.62-.63,3.08-1.15,8.31-2.36,8.33Z"/>
                <path class="cls-4" d="M268.46,138.87l-4.32-2.32c.61-1.24,2.08-1.72,3.27-1.08s1.66,2.16,1.05,3.4Z"/>
                <path class="cls-16" d="M283.92,166.22s-6.41-1.29-8.65-2.48c-1.5-.8-2.74-2.18-3.1-3.07,0,0,.42,1.9,1.76,3.62,1.64,2.1,9.99,3.64,9.99,3.64v-1.71Z"/>
              </g>
              <g>
                <path class="cls-4" d="M283.6,149.63c0,.74-.58,1.33-1.28,1.33-.71,0-1.28-.6-1.28-1.34s.57-1.33,1.28-1.33c.71,0,1.28.6,1.28,1.34Z"/>
                <path class="cls-4" d="M282.24,144.78l-2.75,1.52c-.41-.79-.12-1.77.64-2.19.76-.42,1.7-.12,2.11.67Z"/>
                <path class="cls-16" d="M283.33,158.51l2.93,1.1c-.29.84-1.18,1.28-1.99.97-.81-.3-1.23-1.23-.94-2.07Z"/>
                <path class="cls-4" d="M294.69,145.85l-2.51-1.93c.51-.72,1.49-.87,2.18-.33.69.53.84,1.55.33,2.26Z"/>
                <path class="cls-4" d="M293.91,149.27c0,.74-.58,1.33-1.28,1.33-.71,0-1.28-.6-1.28-1.34s.58-1.33,1.28-1.33c.71,0,1.28.6,1.28,1.34Z"/>
                <polygon class="cls-16" points="287.37 148.05 287.79 155.77 291.82 154.4 287.37 148.05"/>
              </g>
            </g>
            <path class="cls-4" d="M270.98,352.2v-1.22c.81.35,2.7,7.56,6.08,10.64,2.68,2.45,6.34,5.27,7.27,8,.97,2.84-5.09,4.4-7.6,3.96-2.91-.52-7.95-2.56-9.22-4.46-1.27-1.9-1.86-4.7-2.89-6.09-1.03-1.39-3.4-2.95-3.96-4.56-.31-.89.06-2.82.49-4.46.39-1.5.82-3.16,1.33-3.01,0,.18,0,.93,0,.93.62.68,2.32,1.36,4.25,1.44,1.24.05,4.26-.2,4.25-1.15Z"/>
            <path class="cls-4" d="M294.58,343.18c.44.02.8.64,1.77,1.69,1.18,1.27,3.1,2.65,5,3.6,3.18,1.59,9.37,4.04,12.17,5.31,1.75.79,1.67,2.9-.14,4.1-1.81,1.2-6.17,2.07-11.42.9-2.86-.64-6.57-3.28-8.93-3.13-2.35.14-6.76.11-8.49-1.09-1.74-1.2-1.04-3.75-.55-5.95.54-2.4,1.21-6.14,2-5.97v.83c1.02,1.55,6.3,2.18,8.54,1.04l.05-1.31Z"/>
            <path class="cls-4" d="M280.54,252.66s6.79-1.91,11.84-6.79c0,0-2.28,4.28-9.08,8.26l.91,30.04-3.67-31.51Z"/>
          </g>
        </g>
      </g>
      <path class="cls-2" d="M245.02,215.74c5.45-31.9,11.03-41.6,20.17-41.93,2.82,3.05,2.56,12.71-1.36,18.75,0,0-8.4,20.27-9.55,27.38-1.01,6.25-2.11,14.11-1.75,19.42.06.94.5,1.82,1.17,2.48,1.81,1.77,1.89,3.27,3.1,5.27.95,1.57,1.93,2.12,1.68,2.5-.33.48-1.4,1.14-2.81.35-.71-.4-1.18-.89-2.24-1.94,0,0,.4,2.48,1.98,5.61,2.14,4.25,1.78,6.49-4.16,5.23-3.72-.79-6.18-3.73-7.17-12.54-.28-2.54-.72-6.54-.58-9.77.37-8.42.67-15.79,1.53-20.81Z"/>
      <path class="cls-10" d="M267.42,172.51c-2.78.51-9.91.76-13.56,8.13-2.41,4.85-4.82,12.45-7.41,21.55,0,0,5.35,5.54,13.24,4.75l4.41-12.74c4.19-5.42,5.23-17.61,3.32-21.68Z"/>
    </g>
  </g>
  <g id="Character_3" data-name="Character 3">
    <g>
      <g id="Character">
        <g>
          <path class="cls-1" d="M216.79,170.42c-7.77-31.29-16.65-38.56-8.35-42.77,8.53-.83,12.93,4.21,14.42,13.19.73,4.39,2.31,22.44,4.29,29.51,1.74,6.21,4.08,13.94,6.69,18.7.46.84,1.24,1.47,2.14,1.79,2.43.87,3.14,2.21,5.12,3.54,1.55,1.04,2.69,1.13,2.62,1.59-.09.59-.8,1.65-2.45,1.52-.83-.07-1.47-.31-2.9-.84,0,0,1.43,2.12,4.23,4.34,3.8,3.01,4.43,5.23-1.6,6.62-3.78.87-7.31-.81-11.99-8.52-1.35-2.22-3.47-5.73-4.72-8.78-3.26-7.94-6.24-14.85-7.49-19.89Z"/>
          <g>
            <path class="cls-4" d="M189.99,309.92v-1.21c.48,1.42,2.7,7.56,6.07,10.63,2.68,2.44,6.33,5.26,7.26,7.99.97,2.83-5.08,3.78-7.59,3.34-2.91-.51-6.67-2.16-8.72-4.68-1.44-1.77-2.36-3.86-3.38-5.26-1.03-1.39-3.4-2.94-3.95-4.55-.31-.88.06-2.82.49-4.46.39-1.5.82-3.15,1.33-3.01,0,.18,0,.93,0,.93.62.68,2.32,1.36,4.24,1.43,1.24.05,4.26-.2,4.25-1.15Z"/>
            <path class="cls-1" d="M198.48,321.48c-.83-.74-1.67-1.47-2.42-2.16-2.35-2.15-4.15-5.79-5.18-8.27-.59-1.42-.89-2.93-.89-4.47v-4.84h-8.49v7.88h0s0,0,0,0v.21l.04.02c.41,1.76,4.3,6.46,6.52,9.52,1.48,2.05,4.3,4.66,7.67,5.11,3.19.43,4.82-.58,2.75-3Z"/>
          </g>
          <g>
            <path class="cls-4" d="M223.1,301.55v-1.21c.48,1.42,2.7,7.56,6.07,10.63,2.68,2.44,6.33,5.26,7.26,7.99.97,2.83-5.08,3.78-7.59,3.34-2.91-.51-6.67-2.16-8.72-4.68-1.44-1.77-2.36-3.86-3.38-5.26-1.03-1.39-3.4-2.94-3.95-4.55-.31-.88.06-2.82.49-4.46.39-1.5.82-3.15,1.33-3.01,0,.18,0,.93,0,.93.62.68,2.32,1.36,4.24,1.43,1.24.05,4.26-.2,4.25-1.15Z"/>
            <path class="cls-1" d="M231.6,313.11c-.83-.74-1.67-1.47-2.42-2.16-2.35-2.15-4.15-5.79-5.18-8.27-.59-1.42-.89-2.93-.89-4.47v-4.84h-8.49v7.88h0s0,0,0,0v.21l.04.02c.41,1.76,4.3,6.46,6.52,9.52,1.48,2.05,4.3,4.66,7.67,5.11,3.19.43,4.82-.58,2.75-3Z"/>
          </g>
          <g>
            <path class="cls-3" d="M183.19,177.98c-6.58,14.38.24,65.02.24,65.02-.2,2.33-2.87,6.92-3.86,17.19-1.17,12.13,1.84,42.59,1.84,42.59,0,0,3.93,2.57,8.58.34,0,0,8.09-45.88,9.61-57.94,1.33-10.53,3.88-33.67,3.88-33.67l7.24,33.62s-1.86,5.9-2.29,10.39c-.69,7.1,6.19,40.13,6.19,40.13,0,0,2.93,1.07,8.49.26,0,0,2.43-43.84,3.07-52.38,1.08-14.35-2.74-59.14-5.37-67.64l-37.62,2.1Z"/>
            <path class="cls-15" d="M203.48,211.51l2.14-13.35s9.04-1.87,13.14-5.73c0,0-4.3,5.35-10.69,7.1l-2.4,10.28,4.2,31.13-6.38-29.43Z"/>
          </g>
          <g>
            <path class="cls-14" d="M194.8,128.03h0c-8.44.58-9.03,4.66-11.14,9.11-1.61,3.39-1.63,7.33-.4,10.88l5.88,17.01s-3.83,6.43-5.95,12.94c14.76,8.24,33.18,3.91,37.62-2.1.19-1.28-.95-11.24-1.65-17.75,2.6-6.52,3.28-10.65,2.19-14.96-2.04-8-9.94-15.79-13.43-15.51l-13.11.38Z"/>
            <g>
              <g>
                <path class="cls-4" d="M204.83,120.29l-6.22.03c-8.67.04-15.73-6.96-15.76-15.63h0c-.04-10.39,8.34-18.84,18.73-18.89h0c10.39-.04,18.84,8.34,18.89,18.73h0c.04,8.67-6.96,15.73-15.63,15.76Z"/>
                <path class="cls-4" d="M196.7,81.38c2.69,3.95-.16,6.66-4.12,9.34-3.95,2.69-7.52,4.34-10.2.38-2.69-3.95-1.21-8.37,2.75-11.05,3.95-2.69,8.89-2.63,11.57,1.33Z"/>
                <path class="cls-4" d="M187.02,93.61l-3.98,2.94c-.87-1.09-.68-2.64.42-3.45,1.1-.81,2.69-.59,3.56.51Z"/>
              </g>
              <g>
                <path class="cls-1" d="M213.2,94.17c1.99,1.17,4.47,6.15,4.27,16.63-.17,8.88-3.04,11.08-4.48,11.72-1.44.64-4.23.27-6.94-.17l.15,5.39s4.57,3.74,4.34,6.18c-.23,2.44-6.33,3.57-9.84,1.2-3.06-2.07-5.69-4.78-6.32-5.45-.09-.1-.14-.23-.14-.37v-13.44s-1.6,1.56-4.31-.8c-2.24-1.94-3.01-5.23-1.27-7,1.73-1.77,4.95-1.31,6.19,1.21,0,0,4.32.14,10.06-3.05,5.74-3.19,7.93-8.61,8.3-12.05Z"/>
                <path class="cls-4" d="M207.55,108.61c.04.64-.44,1.18-1.05,1.22-.62.03-1.14-.46-1.18-1.1-.03-.64.44-1.18,1.05-1.22.62-.03,1.14.46,1.18,1.1Z"/>
                <path class="cls-13" d="M207.88,116.14l2.6.82c-.21.74-.97,1.16-1.68.94-.72-.23-1.13-1.01-.91-1.75Z"/>
                <path class="cls-4" d="M216.69,105.14l-2.27-1.56c.41-.65,1.25-.82,1.87-.39.63.43.8,1.3.39,1.95Z"/>
                <path class="cls-4" d="M216.18,107.77c.04.64-.44,1.18-1.05,1.22-.62.03-1.14-.46-1.18-1.1-.04-.64.44-1.18,1.05-1.22.62-.03,1.14.46,1.18,1.1Z"/>
                <polygon class="cls-13" points="211.15 106.59 211.11 113.87 214.65 112.76 211.15 106.59"/>
                <path class="cls-13" d="M206.05,122.35c-2.86-.36-8.74-2.02-9.66-4.34,0,0,.31,1.46,2.07,2.95,1.76,1.5,7.64,3.19,7.64,3.19l-.05-1.8Z"/>
              </g>
            </g>
            <path class="cls-9" d="M198.57,179.57c-4.85-1.15-7.92-6.05-6.64-10.86.05-.18.1-.34.15-.46.95-2.28,2.99-1.98,2.99-1.98h0c-1.91-1.27-2.81-3.44-3.26-5.69l-2.22-10.47s-.4-2.36.46-5.17l-5.93-6.86s-.43.3-1.1.76c-.92,2.97-.79,6.21.24,9.19l5.88,17.01s-3.63,5.88-5.95,12.94c10.88,6.07,23.74,5.31,31.53,2.09-6.16.95-11.86.52-16.15-.49Z"/>
          </g>
        </g>
      </g>
      <g>
        <g>
          <path class="cls-6" d="M195.35,204.67l-21.45-12.26s-10.44,14.35-3.33,18.4c7.11,4.05,14.16,8.18,21.24,12.26,8.02-3.14,3.54-18.4,3.54-18.4Z"/>
          <polygon class="cls-3" points="191.81 206.72 175.01 197 175.01 197.93 191.81 207.74 191.81 206.72"/>
          <path class="cls-10" d="M195.35,204.67c-1.38,4.5-5.53,17.25-3.54,18.4s8.14-2.81,8.02-5.19c-.35-6.74-4.48-13.2-4.48-13.2Z"/>
        </g>
        <path class="cls-4" d="M189.42,127.99s2.67-.48,4.23,2.49c3.43,6.52,1.07,73.84,1.07,73.84l-2.32-1.33s.81-21.71.73-41.46c-.06-14.51-.6-28.21-1.22-29.7-1.32-3.15-4.21-2.67-4.21-2.67.34-.62.93-.99,1.72-1.17Z"/>
        <path class="cls-1" d="M168.08,170.38c6.56-26.82,11.66-38.33,18.83-41.01,2.33-.87,4.83.57,5.21,3.02.68,4.41-.55,10.94-3.74,15.36,0,0-9.57,20.2-11.1,27.38-1.34,6.28-2.85,14.18-2.77,19.6.02.97.39,1.92,1.06,2.63,1.76,1.9,1.76,3.43,2.9,5.53.89,1.64,1.86,2.25,1.58,2.62-.36.47-1.48,1.09-2.87.21-.7-.44-1.16-.96-2.18-2.09,0,0,.28,2.54,1.73,5.81,1.96,4.43,1.49,6.69-4.49,5.11-3.75-.99-6.1-4.11-6.66-13.12-.16-2.6-.41-6.69-.1-9.97.8-8.54,1.38-16.05,2.61-21.09Z"/>
      </g>
    </g>
  </g>
  <g id="Character_2" data-name="Character 2">
    <g>
      <path class="cls-1" d="M163.7,132.35c.6-5.86.6-8.34.42-9.07-.82-3.32-3.14-5.99-5.58-10.02-4.19-6.94-10.5-17.7-13.41-21.85-2.3-3.28-4.78-5.2-8.57-4.99-2.65.15-.6,10.6,2.01,18.13l13.95,19.25c.46.63.67,1.41.59,2.18l-1.36,13.72,4.45,5.95s6.73-5.81,7.5-13.3Z"/>
      <path class="cls-13" d="M163.78,131.54c-.2-1.04-.9-1.9-2.74-1.83-1.82.07-3.26,2.43-3.26,2.43l5.16,2.29c.27-.68.53-1.37.75-2.08,0,0,0,0,0,0,.03-.28.05-.55.08-.81Z"/>
      <path class="cls-6" d="M135.03,86.27s5.73-.73,8.91,2.73,4.73,6.35,7.81,11.47c3.71,6.16,5.32,9.32,5.32,9.32,0,0-5.8,7.75-14.35,6.74l-7.69-30.26Z"/>
      <g id="Character_Boy" data-name="Character Boy">
        <g>
          <circle class="cls-4" cx="136.56" cy="59.38" r="11.85" transform="translate(-1.99 113.96) rotate(-45)"/>
          <g>
            <rect class="cls-1" x="108.19" y="259.86" width="8.35" height="14.29" transform="translate(224.72 534) rotate(180)"/>
            <polygon class="cls-1" points="137.12 264.15 145.47 264.43 145.88 249.31 137.54 249.03 137.12 264.15"/>
            <path class="cls-12" d="M108.74,146.61c0,7.97-1.03,56.26-1.03,56.26-.19,2.29-2.34,6.52-1.88,15.33.63,11.96,1.67,43.07,1.67,43.07,0,0,3.91,3.88,9.44,0,0,0,7.56-43.03,9.05-54.88,1.31-10.35,3.52-38.46,3.52-38.46l4.63,39.02s-1.36,7.78-1.66,13.27c-.3,5.49,4.52,33.35,4.52,33.35,0,0,4.24,2.93,9.08.35,0,0,3.6-42.48,4.46-47.44.86-4.96-2.76-59.86-2.76-59.86h-39.03Z"/>
            <path class="cls-3" d="M116.76,88.96c-3.64.65-6.54,3.4-7.33,7.01-.4,1.79-.69,3.93-.69,6.34v44.31c5.85,6.37,26.25,9.33,39.03,0,0,0-.25-39.13-1.21-45.56-1.66-11.17-7.01-15.15-12.38-14.74l-12.88,1.84-4.55.81Z"/>
            <g>
              <g>
                <path class="cls-4" d="M116.08,67.81s1.92,9.02,2.69,10.5c.77,1.48,2.36,1.9,2.36,1.9l-.13-6.35-4.92-6.06Z"/>
                <path class="cls-4" d="M118.49,54.88s-2.07-.35-3.68,1.29c-1.58,1.62-.7,6.67,1.27,11.63l3.62.42-1.21-13.34Z"/>
                <path class="cls-1" d="M120.78,68.22c-.73.43-1.76-.96-2.65-1.9-.89-.94-3.81-2.21-5.27.85-1.48,3.13,1.29,7.26,3.58,7.98,3.96,1.24,4.56-1.3,4.56-1.3l.3,14.29s2.59,6.35,9.62,7.3c7.02.95,5.58-4.84,3.27-7.68v-4.35s3.58.54,5.33.27c2.91-.45,4.75-2.75,5.63-5.9,1.42-5.06,1.96-9.15.75-19.11-1.32-10.92-14.02-11.03-20.87-6.71-6.86,4.32-4.24,16.25-4.24,16.25Z"/>
                <path class="cls-4" d="M120.78,69.44c-.36,0-1.75-2.29-2.65-3.12-1.25-1.14.36-11.44.36-11.44,0,0-1.2-2.56,1.21-5.21,1.71-1.89,4.58-2.1,9.47-2.86,2.57-.4,6.45-1.12,9.02-1.6,3.06-.57,5.59-1.17,7.75.71,1.68,1.46,2.4,4.04,1.5,6.08-.21.48-.52.91-.87,1.3-.62.69-1.32,1.23-2.2,1.52,0,0-1.33,1.18-5.97,1.75-4.64.57-11.87-.11-12.85-.24-1.35-.18-1.63,1.12-2.36,4.68-.64,3.13-1.17,8.43-2.39,8.45Z"/>
                <path class="cls-4" d="M118.5,55.69l-4.38-2.35c.62-1.26,2.11-1.75,3.32-1.1,1.21.65,1.69,2.2,1.07,3.45Z"/>
                <path class="cls-13" d="M134.18,83.43s-6.5-1.31-8.78-2.52c-1.52-.81-2.77-2.21-3.14-3.11,0,0,.43,1.93,1.79,3.67,1.66,2.13,10.13,3.69,10.13,3.69v-1.73Z"/>
              </g>
              <g>
                <path class="cls-4" d="M132.61,66.6c0,.75-.58,1.35-1.3,1.35-.72,0-1.3-.61-1.3-1.36s.58-1.35,1.3-1.35c.72,0,1.3.61,1.3,1.36Z"/>
                <path class="cls-4" d="M131.23,61.68l-2.79,1.54c-.41-.8-.12-1.79.65-2.22.77-.43,1.73-.12,2.14.68Z"/>
                <path class="cls-13" d="M133.59,75.6l2.97,1.12c-.29.85-1.2,1.29-2.02.99-.82-.31-1.25-1.25-.95-2.1Z"/>
                <path class="cls-4" d="M144.23,62.76l-2.54-1.96c.52-.73,1.51-.88,2.21-.34.7.54.85,1.57.33,2.3Z"/>
                <path class="cls-4" d="M143.45,66.23c0,.75-.58,1.35-1.3,1.35-.72,0-1.3-.61-1.3-1.36s.58-1.35,1.3-1.35c.72,0,1.3.61,1.3,1.36Z"/>
                <polygon class="cls-13" points="136.81 64.99 137.24 72.83 141.33 71.43 136.81 64.99"/>
              </g>
            </g>
            <path class="cls-4" d="M116.54,270.02v-1.19c.8.35,2.65,7.43,5.97,10.45,2.63,2.4,6.22,5.17,7.14,7.85.95,2.78-5,4.32-7.46,3.89-2.86-.51-7.81-2.52-9.05-4.38-1.24-1.87-1.83-4.62-2.84-5.98-1.01-1.37-3.34-2.89-3.89-4.48-.3-.87.06-2.77.48-4.38.39-1.48.81-3.1,1.31-2.96,0,.18,0,.91,0,.91.61.67,2.28,1.34,4.17,1.41,1.22.05,4.18-.2,4.17-1.13Z"/>
            <path class="cls-4" d="M145.55,261.86c.43.02.79.63,1.74,1.66,1.16,1.25,3.04,2.6,4.91,3.53,3.12,1.56,9.2,3.97,11.95,5.21,1.72.77,1.64,2.85-.14,4.03-1.78,1.18-6.06,2.03-11.21.88-2.8-.63-6.45-3.22-8.77-3.08-2.31.14-6.63.11-8.34-1.07-1.71-1.18-1.02-3.69-.54-5.84.53-2.35,1.28-5.96,2.06-5.8l-.03.74c1,1.52,6.11,2.14,8.32,1.02l.04-1.29Z"/>
          </g>
          <path class="cls-9" d="M129.5,167.92s6.67-1.88,11.62-6.66c0,0-2.24,4.2-8.91,8.11l1.92,37.57-4.63-39.02Z"/>
        </g>
      </g>
      <g>
        <path class="cls-1" d="M95.81,159.15c.37,3.62.78,8.5,1.5,11.28,2.5,9.64,5.7,12.53,9.97,12.81,6.81.45,6.85-2.09,3.8-6.48-2.26-3.24-3.04-6.27-3.04-6.27,1.34,1.01,2.42,1.78,3.27,2.11,1.7.66,2.78-.24,3.07-.83.22-.46-.96-.92-2.26-2.51-1.67-2.03-2.52-3.65-4.81-5.34-.85-.63-1.12-1.79-1.38-2.81-.35-1.37-.58-23.23.65-27.76l5.86-21.02c4.76-3.27,9.84-19.45,2.6-22.89-6.8.77-11.76,9.66-19.17,37.12-1.31,4.86-.82,25.11-.05,32.59Z"/>
        <path class="cls-6" d="M116.54,89.04s2.75,2.02,2.94,6.6c.19,4.58-1.96,11.18-3.26,15.31-1.3,4.13-4,11.61-4,11.61,0,0-11.19-1.28-13.74-7.85,0,0,5.24-16.96,10.29-22.48,3.45-3.78,7.77-3.18,7.77-3.18Z"/>
      </g>
      <g>
        <path class="cls-10" d="M162.31,125.16l-.88-.76h0c-.2-.15-.51-.2-.91-.09l-9.57,2.6c-.89.24-1.85,1.14-2.15,2.01l-6.89,19.87c-.16.46-.1.81.13,1.01h0s.91.79.91.79l-.04-.65s.05,0,.07-.01l9.57-2.6c.89-.24,1.85-1.14,2.15-2.01,1.35-3.9,5.53-15.96,6.89-19.87.04-.12.07-.24.08-.35l.65.06Z"/>
        <path class="cls-4" d="M142.8,149.55l6.89-19.87c.3-.87,1.26-1.77,2.15-2.01l9.57-2.6c.89-.24,1.36.27,1.06,1.14-1.35,3.9-5.53,15.96-6.89,19.87-.3.87-1.26,1.77-2.15,2.01l-9.57,2.6c-.89.24-1.36-.27-1.06-1.14Z"/>
      </g>
      <path class="cls-1" d="M159.67,134.21c-.67,2.02-3.08,3.37-7.03,4.31-3.95.94-6.14,5.13-5.5,6.41.64,1.28,7.02,2.46,9.58,2.1,2.55-.36,5.12-4.06,5.9-5.2.77-1.14,1.67-9.12.85-10.22-.82-1.09-2.55-.93-2.55-.93l-1.25,3.53Z"/>
    </g>
  </g>
  <g id="Character_1" data-name="Character 1">
    <g>
      <g>
        <path class="cls-3" d="M86.29,105.37l-24.6-14.06s-11.97,16.45-3.82,21.09c8.15,4.64,16.24,9.38,24.36,14.06,9.19-3.6,4.06-21.1,4.06-21.1Z"/>
        <path class="cls-11" d="M86.29,105.37l-24.6-14.06s-11.97,16.45-3.82,21.09c8.15,4.64,16.24,9.38,24.36,14.06,9.19-3.6,4.06-21.1,4.06-21.1Z"/>
        <polygon class="cls-4" points="82.23 107.71 65.99 98.33 65.99 99.4 82.23 108.88 82.23 107.71"/>
        <path class="cls-3" d="M86.29,105.37c-1.59,5.16-6.34,19.78-4.06,21.1s9.33-3.22,9.19-5.95c-.4-7.72-5.13-15.14-5.13-15.14Z"/>
      </g>
      <g id="Character-2" data-name="Character">
        <path class="cls-4" d="M50.04,0h3.17c9.83,0,17.8,7.98,17.8,17.8v37.82h-38.78V17.8C32.23,7.98,40.21,0,50.04,0Z"/>
        <path class="cls-2" d="M86.52,86.49c2.33-2.17,1.37-4.68-1.85-11.59s-10.88-22.9-12.8-26.32c-3.35-5.97-7.28-6.3-13.19-6.28-2.38,0,3.66,6.82,6.37,13.43,2.45,5.98,11.98,25.55,11.98,25.55l9.49,5.22Z"/>
        <g>
          <path class="cls-2" d="M48.76,241.32c-.85-.76-1.71-1.5-2.49-2.21-2.42-2.2-4.26-5.94-5.32-8.49-.6-1.46-.91-3.01-.91-4.59v-4.97h-8.72v8.09h0s0,0,0,0v.22l.04.02c.42,1.81,4.42,6.63,6.69,9.77,1.52,2.11,4.42,4.79,7.88,5.25,3.28.44,4.95-.6,2.82-3.08Z"/>
          <path class="cls-2" d="M73.94,228.06c.24-.14.46-.33.63-.56.68-.94.14-1.45-.35-2.19-.64-.96-1.06-2.2-1.5-3.26-.4-.97-.93-2.76-.93-2.76,0,0,.02-1.3.02-1.82v-4.97h-8.72v8.3l.04.02c.45,1.93,2.21,3.8,3.36,5.35.9,1.2,3.2,1.8,4.59,2.1.62.13,1.25.22,1.87.12.34-.05.68-.16.98-.34Z"/>
          <path class="cls-6" d="M33.05,93.97c-6.76,14.76.24,66.76.24,66.76-.2,2.4-2.94,7.11-3.96,17.65-1.21,12.46,1.89,43.73,1.89,43.73,0,0,4.04,2.64,8.81.35,0,0,8.31-47.11,9.87-59.49,1.36-10.81,3.98-34.57,3.98-34.57l5.2,34.56s-1.91,6.05-2.36,10.67c-.71,7.28,6.35,41.2,6.35,41.2,0,0,3.01,1.1,8.72.26,0,0,2.5-45.01,3.15-53.79,1.11-14.74-.57-60.77-3.28-69.49l-38.63,2.16Z"/>
          <path class="cls-4" d="M53.89,128.4l2.19-13.71s9.28-1.92,13.49-5.88c0,0-4.42,5.49-10.98,7.29l-2.46,10.56,2.21,31.31-4.45-29.57Z"/>
          <path class="cls-4" d="M40.06,227.83v-1.26c.82.36,2.78,7.78,6.25,10.95,2.76,2.51,6.52,5.42,7.47,8.22.99,2.92-5.24,4.52-7.81,4.07-2.99-.53-8.18-2.64-9.48-4.59-1.3-1.95-1.91-4.83-2.97-6.27-1.06-1.43-3.5-3.03-4.07-4.69-.31-.91.06-2.9.5-4.59.41-1.55.84-3.24,1.37-3.1,0,.19,0,.95,0,.95.63.7,2.39,1.4,4.37,1.48,1.28.05,4.38-.2,4.37-1.18Z"/>
          <path class="cls-4" d="M71.79,219.3c.45.02.94.7,1.94,1.79,1.21,1.31,3.19,2.72,5.14,3.7,3.27,1.64,9.63,4.16,12.51,5.45,1.8.81,1.71,2.98-.14,4.22-1.86,1.24-6.35,2.13-11.74.92-2.94-.66-6.76-3.37-9.18-3.22-2.42.15-6.95.11-8.73-1.12-1.79-1.23-1.07-3.86-.57-6.12.55-2.47,1.24-6.31,2.06-6.14v.85c1.05,1.59,6.47,2.24,8.78,1.07l-.07-1.4Z"/>
        </g>
        <g>
          <path class="cls-3" d="M44.98,42.69h0c-8.66.6-9.27,4.78-11.44,9.36-1.65,3.48-1.11,7.64.15,11.28l5.48,17.35s-2.83,6.83-6.11,13.29c15.15,8.46,34.07,4.01,38.63-2.16.19-1.31-.98-11.54-1.7-18.23,2.67-6.69,3.37-10.94,2.25-15.36-2.09-8.21-10.2-16.22-13.79-15.92l-13.46.39Z"/>
          <g>
            <path class="cls-4" d="M31.3,8.01l2.62,4.22c-1.16.78-2.69.46-3.42-.7-.72-1.16-.37-2.74.79-3.52Z"/>
            <path class="cls-2" d="M64.64,7.84c2.05,1.21,4.58,6.36,4.33,17.16-.21,9.15-3.18,11.41-4.67,12.06-1.49.65-4.36.26-7.16-.21v5.49s3.86,4.48,3.62,7c-.24,2.52-5.57,3.11-9.19.65-3.61-2.46-5.93-6.21-5.93-6.21v-13.28s-1.89,2.52-4.97.47-3.2-7.12-1.41-8.94c1.79-1.82,5.66-1.24,6.38,1.27,0,0,4.45.16,10.39-3.1,5.93-3.26,8.21-8.84,8.6-12.39Z"/>
            <path class="cls-4" d="M57.73,22.7c.03.66-.45,1.22-1.09,1.25-.64.03-1.18-.48-1.21-1.14-.03-.66.45-1.22,1.09-1.25.63-.03,1.18.48,1.21,1.14Z"/>
            <path class="cls-16" d="M59.06,30.46l2.67.85c-.22.77-1,1.19-1.74.96-.74-.24-1.16-1.05-.93-1.81Z"/>
            <path class="cls-4" d="M67.17,19.17l-2.33-1.61c.42-.66,1.29-.84,1.93-.4.64.45.82,1.35.39,2.01Z"/>
            <path class="cls-4" d="M66.63,21.87c.03.66-.45,1.22-1.09,1.25-.63.03-1.18-.48-1.21-1.14-.03-.66.45-1.22,1.09-1.25.63-.03,1.18.48,1.21,1.14Z"/>
            <polygon class="cls-16" points="61.01 21.21 61.19 28.14 64.84 27.01 61.01 21.21"/>
            <path class="cls-16" d="M57.15,36.86c-2.94-.39-9-2.13-9.94-4.52,0,0,.31,1.5,2.12,3.05,1.81,1.55,7.82,3.3,7.82,3.3v-1.83Z"/>
          </g>
          <path class="cls-15" d="M48.85,95.61c-4.12-.98-8.31-5.49-6.42-9.89.53-1.23,1.47-2.28,2.64-2.93,1.01-.57,1.81-.33,2.75.29-1.96-1.3-5.39-7.63-5.85-9.94l-2.34-7.79s-.41-2.42.47-5.31l-6.09-7.04s-.44.3-1.12.78c-.95,3.05-.24,6.5.81,9.55l5.48,17.35s-2.83,6.83-6.11,13.29c11.17,6.23,24.37,5.45,32.37,2.14-6.32.98-12.18.54-16.58-.51Z"/>
        </g>
        <path class="cls-2" d="M19.25,84.18c6.56-26.82,11.26-36.29,16.46-39.42,1.99-1.2,4.9-1.82,6.36-1.68.78.74,1.09,2.19,1.23,3.11.68,4.41-.55,10.94-3.74,15.36,0,0-9.57,20.2-11.1,27.38-1.34,6.28-2.85,14.18-2.77,19.6.01.97.39,1.92,1.06,2.63,1.76,1.9,1.76,3.43,2.9,5.53.89,1.64,1.86,2.25,1.58,2.62-.36.47-1.48,1.09-2.87.21-.7-.44-1.16-.96-2.18-2.09,0,0,.28,2.54,1.73,5.81,1.96,4.43,1.49,6.69-4.49,5.11-3.75-.99-6.1-4.11-6.66-13.12-.16-2.6-.41-6.69-.1-9.97.8-8.54,1.38-16.05,2.61-21.09Z"/>
      </g>
      <path class="cls-2" d="M56.56,82.03c1.8.52,3.55.29,6.02,1.22,2.18.82,3.62,1.28,5.78,1.46,2.16.18,4.28-2.09,9.82-5.23,5.24-2.97,11.72,3.17,8.35,7-.56.64-2.32,1.96-4.09,2.67-2.51,1-4.97,1.53-11.42,3.48-1.1.33-2.12.86-3.15,1.36-1.28.63-2.51.99-3.85,1.43-2.99.98-6.23,1.18-9.31.56-1.85-.37-3.79-1.13-5.07-2.58-1.15-1.3-2.19-3.77-1.79-5.51.12-.52.37-1.03.79-1.35,1-.79,2.55-.29,3.68-.11,1.37.21,2.65.48,4.04.42,2.15-.09,3.66-.45,3.37-.77s-1.56-.17-3.27-.96c-1.63-.76-2.78-2.47-2.28-3.35.5-.88.59-.26,2.39.26Z"/>
      <path class="cls-4" d="M76.5,80.37s2.94-.49,4.85,2.85,2.91,20.97,2.91,20.97l-2.03-1.17s-.69-14.13-2.38-18.16c-1.52-3.62-5.33-3.15-5.33-3.15.39-.71,1.07-1.13,1.98-1.34Z"/>
    </g>
  </g>
  <g id="Poles">
    <g>
      <g>
        <path class="cls-6" d="M8.74,127.73H0v136.3H0C0,264.67.43,265.32,1.28,265.81c1.71.99,4.47.99,6.18,0,.85-.49,1.28-1.14,1.28-1.78h0V127.73Z"/>
        <path class="cls-10" d="M1.28,129.51c1.71.99,4.47.99,6.18,0,1.71-.98,1.71-2.58,0-3.57-1.71-.98-4.47-.98-6.18,0-1.71.98-1.71,2.58,0,3.57Z"/>
      </g>
      <g>
        <path class="cls-3" d="M7,144.59c31.05,29.46,68.61,50.51,111.64,64.46v-8.65c-43.04-13.95-80.59-35-111.64-64.46v8.65Z"/>
        <path class="cls-8" d="M7,144.59c31.05,29.46,68.61,50.51,111.64,64.46v-8.65c-43.04-13.95-80.59-35-111.64-64.46v8.65Z"/>
      </g>
      <g>
        <path class="cls-6" d="M120.53,192.62h-8.74v136.3h0c0,.65.43,1.29,1.28,1.78,1.71.99,4.47.99,6.18,0,.85-.49,1.28-1.14,1.28-1.78h0v-136.3Z"/>
        <path class="cls-10" d="M113.07,194.4c1.71.98,4.47.98,6.18,0,1.71-.99,1.71-2.58,0-3.57-1.71-.98-4.47-.98-6.18,0-1.71.99-1.71,2.58,0,3.57Z"/>
      </g>
      <g>
        <path class="cls-3" d="M118.27,208.66c31.05,29.46,68.61,50.51,111.64,64.46v-8.65c-43.04-13.95-80.59-35-111.64-64.46v8.65Z"/>
        <path class="cls-8" d="M118.27,208.66c31.05,29.46,68.61,50.51,111.64,64.46v-8.65c-43.04-13.95-80.59-35-111.64-64.46v8.65Z"/>
      </g>
      <g>
        <path class="cls-6" d="M232.32,257.5h-8.74v136.3h0c0,.65.43,1.29,1.28,1.78,1.71.98,4.47.98,6.18,0,.85-.49,1.28-1.14,1.28-1.78h0v-136.3Z"/>
        <path class="cls-10" d="M224.87,259.29c1.71.98,4.47.98,6.18,0,1.71-.98,1.71-2.58,0-3.57-1.71-.98-4.47-.98-6.18,0-1.71.98-1.71,2.58,0,3.57Z"/>
      </g>
    </g>
  </g>
</svg>