<?xml version="1.0" encoding="UTF-8"?>
<svg xmlns="http://www.w3.org/2000/svg" viewBox="0 0 439.49 412.27">
  <defs>
    <style>
      .cls-1 {
        fill: #ffa8a7;
      }

      .cls-2 {
        fill: #fafafa;
      }

      .cls-3 {
        fill: #27debf;
      }

      .cls-4 {
        fill: #263238;
      }

      .cls-5 {
        fill: #f0f0f0;
      }

      .cls-6 {
        fill: #37474f;
      }

      .cls-7, .cls-8 {
        fill: #fff;
      }

      .cls-9, .cls-8 {
        opacity: .4;
      }

      .cls-10 {
        fill: #e0e0e0;
      }

      .cls-11 {
        fill: #455a64;
      }

      .cls-12 {
        opacity: .15;
      }

      .cls-13 {
        fill: #f28f8f;
      }

      .cls-14 {
        fill: #f5f5f5;
      }

      .cls-15 {
        opacity: .1;
      }

      .cls-16 {
        fill: #e6e6e6;
      }
    </style>
  </defs>
  <g id="Floor">
    <path id="Floor-2" data-name="Floor" class="cls-14" d="M64.36,380.68c85.82,42.11,224.95,42.12,310.77,0,85.82-42.12,85.82-110.4,0-152.51-85.82-42.11-224.95-42.11-310.77,0-85.82,42.11-85.82,110.4,0,152.51Z"/>
  </g>
  <g id="Shadow">
    <path id="Shadow-2" data-name="Shadow" class="cls-10" d="M145.39,368.65c-18.24,8.69-47.8,8.69-66.04,0-18.24-8.69-18.24-22.78,0-31.48,18.24-8.69,47.8-8.69,66.04,0,18.24,8.69,18.24,22.79,0,31.48Z"/>
    <path id="Shadow-3" data-name="Shadow" class="cls-10" d="M380.28,303.17c-18.24,8.69-47.8,8.69-66.04,0-18.24-8.69-18.24-22.78,0-31.48,18.24-8.69,47.8-8.69,66.04,0,18.24,8.69,18.24,22.79,0,31.48Z"/>
  </g>
  <g id="Device">
    <g id="Device-2" data-name="Device">
      <g>
        <path class="cls-4" d="M170.01,191.61l-39.61,22.87c-1.47.85-2.9,2.89-3.19,4.56l-9.84,56.83c-.29,1.67.67,3.72,2.14,4.56l25.54,14.74c1.47.85,3.85.85,5.32,0l54.58-31.51c1.47-.85,2.66-2.83,2.66-4.42,0-1.59-1.19-3.57-2.66-4.42l-19.64-11.34c-1.47-.85-2.8-2.9-2.97-4.59l-4.37-42.88c-.17-1.69-1.43-3.7-2.81-4.5-1.38-.8-3.69-.75-5.16.1Z"/>
        <path class="cls-11" d="M147.71,285.18v10.63c.96,0,1.93-.21,2.66-.64l54.58-31.51c1.47-.85,2.66-2.83,2.66-4.42,0-.93-.41-1.99-1.05-2.88h-8.94l-49.92,28.82Z"/>
        <path class="cls-4" d="M175,194.49l-39.61,22.87c-1.47.85-2.9,2.89-3.19,4.56l-8.94,51.59c-.29,1.67.67,3.72,2.14,4.56l19.64,11.34c1.47.85,3.85.85,5.32,0l54.58-31.51c1.47-.85,1.47-2.22,0-3.07l-19.64-11.34c-1.47-.85-2.8-2.9-2.97-4.59l-4.37-42.88c-.17-1.69-1.5-2.37-2.97-1.52Z"/>
        <path class="cls-6" d="M204.95,254.82l-19.64-11.34c-.72-.42-1.41-1.13-1.95-1.95l-59.72,34.48c.38.86,1,1.62,1.76,2.06l19.64,11.34c1.47.85,3.85.85,5.32,0l54.58-31.51c1.47-.85,1.47-2.22,0-3.07Z"/>
      </g>
      <g>
        <path class="cls-11" d="M44.15,304.63l-2.54-1.46c-2.06-1.19-3.72-4.08-3.72-6.45V126.63c0-2.38,1.67-5.26,3.73-6.44L249.41.88c2.06-1.18,5.4-1.18,7.46,0l1.93,1.12c2.06,1.19,3.73,4.08,3.73,6.45v170.09c0,2.38-1.67,5.26-3.73,6.45l-207.2,119.63c-2.06,1.19-5.39,1.19-7.45,0Z"/>
        <path class="cls-4" d="M52.86,130.97l-13.88-8.02c-.68,1.17-1.09,2.48-1.09,3.67v170.09c0,2.38,1.67,5.26,3.73,6.45l2.54,1.46c2.06,1.19,5.39,1.19,7.45,0l1.27-.73v-172.93Z"/>
        <path class="cls-6" d="M47.87,302.48v-170.09c0-2.38,1.67-5.26,3.73-6.45L258.8,6.31c2.06-1.19,3.73-.22,3.73,2.15v170.09c0,2.38-1.67,5.26-3.73,6.45l-207.2,119.63c-2.06,1.19-3.73.22-3.73-2.15Z"/>
        <path class="cls-10" d="M145.17,239.08l19.64-11.34c1.47-.85,2.66-.25,2.66,1.35s-1.19,3.57-2.66,4.42l-19.64,11.34c-1.47.85-2.66.25-2.66-1.35,0-1.59,1.19-3.57,2.66-4.42Z"/>
        <path class="cls-7" d="M57.42,131.14L252.56,18.16c1.17-.68,2.13-.13,2.13,1.23v148.24c0,1.36-.95,3.01-2.13,3.69l-195.14,112.66c-1.18.68-2.13.13-2.13-1.23v-147.92c0-1.36.95-3.01,2.13-3.69Z"/>
      </g>
      <g id="Tab">
        <path class="cls-16" d="M64.69,133.99L243.74,30.63c3.25-1.88,5.91-.34,5.91,3.41v128.71c0,1.74-1.23,3.88-2.74,4.75l-183.27,105.8c-1.51.87-2.74.16-2.74-1.58v-131.14c0-2.41,1.71-5.38,3.8-6.59Z"/>
        <polygon class="cls-14" points="138.11 111.5 236.77 54.54 236.78 74.35 138.11 131.32 138.11 111.5"/>
        <polygon class="cls-5" points="138.11 139.16 236.77 82.2 236.78 131.84 138.11 188.8 138.11 139.16"/>
        <path class="cls-3" d="M249.65,37.12v-3.08c0-3.75-2.66-5.29-5.91-3.41l-179.05,103.36c-2.09,1.21-3.8,4.17-3.8,6.59v5.52L249.65,37.12Z"/>
        <path class="cls-7" d="M224.87,44.15c-1.12.65-2.04,2.23-2.04,3.52s.91,1.82,2.04,1.18c1.12-.65,2.04-2.23,2.04-3.52s-.91-1.82-2.04-1.17Z"/>
        <path class="cls-7" d="M232.94,39.48c-1.12.65-2.03,2.23-2.03,3.52s.91,1.82,2.03,1.18c1.12-.65,2.03-2.23,2.03-3.52s-.91-1.82-2.03-1.17Z"/>
        <path class="cls-7" d="M241.02,34.82c-1.12.65-2.04,2.23-2.04,3.52s.91,1.82,2.04,1.18c1.12-.65,2.03-2.23,2.03-3.52s-.91-1.82-2.03-1.17Z"/>
        <path class="cls-2" d="M69.47,216.58c-.18,0-.36-.05-.53-.14-.33-.19-.53-.54-.53-.92v-64.4c0-.38.2-.73.53-.91l55.68-32.25c.33-.19.73-.19,1.06,0,.33.19.53.54.53.92v64.45c0,.38-.2.73-.53.91l-55.68,32.2c-.16.09-.35.14-.53.14ZM70.52,151.74v61.96l53.57-30.98v-62.01l-53.57,31.03Z"/>
        <path class="cls-2" d="M88.65,193.34c-2.02,0-3.9-.48-5.56-1.44-4-2.31-6.21-7.1-6.21-13.48,0-12.69,8.93-28.18,19.9-34.53,5.51-3.19,10.74-3.68,14.74-1.37,4.01,2.31,6.21,7.1,6.21,13.49,0,12.7-8.93,28.19-19.9,34.53-3.22,1.86-6.34,2.8-9.18,2.8ZM105.96,143.2c-2.47,0-5.23.85-8.12,2.52-10.39,6.02-18.84,20.69-18.84,32.71,0,5.6,1.83,9.73,5.15,11.65,3.32,1.91,7.8,1.43,12.63-1.36,10.39-6.01,18.84-20.68,18.84-32.71,0-5.6-1.83-9.74-5.16-11.66-1.33-.77-2.85-1.15-4.51-1.15Z"/>
      </g>
    </g>
  </g>
  <g id="Gear">
    <g>
      <g>
        <path class="cls-3" d="M307.77,225.22l-3.87-2.23h0c-.16-.09-.37-.09-.61.01l-7,3.15c-.49.22-1-.02-1.17-.54-.41-1.29-.93-2.44-1.56-3.47-.28-.46-.35-1.21-.11-1.69l4.66-9.4c.24-.49.06-1.1-.41-1.37l-5.06-2.92c-.47-.27-1.09-.12-1.39.33l-5.81,8.74c-.3.45-.98.77-1.52.76-.66-.02-1.34.02-2.03.09v-6.39l-3.88-2.24h0c-.17-.09-.4-.08-.64.06l-7.86,4.54c-.47.27-.89.93-.94,1.47l-.79,8.74c-.05.54-.42,1.27-.82,1.63-1.53,1.41-2.99,2.96-4.37,4.62-.35.42-1.03.62-1.54.44l-5.04-1.76c-.51-.18-1.15.06-1.42.53l-5.78,10.01c-.27.47-.16,1.14.25,1.49l4.05,3.49c.41.35.58,1.05.39,1.56-.75,2.02-1.36,4.06-1.82,6.09-.12.53-.56,1.21-1.01,1.52l-7.18,5.05c-.44.31-.8,1-.8,1.55v9.07c0,.28.11.48.28.58h0s3.87,2.23,3.87,2.23l5.75-2.72c.22.47.46.92.72,1.34.28.46.35,1.21.11,1.69l-4.66,9.4c-.24.49-.06,1.1.41,1.37l5.06,2.92c.47.27,1.09.12,1.39-.33l5.81-8.74c.3-.45.98-.77,1.52-.76,1.2.03,2.47-.09,3.78-.38.53-.12,1,.2,1.05.74l.77,7.63c.03.26.14.44.3.54h0s3.86,2.23,3.86,2.23l4.64-6.82c.47-.27.89-.93.94-1.47l.79-8.74c.05-.54.51-1.11,1.01-1.32,2.24-.94,4.51-2.57,6.1-4.28.37-.4,1.05-.6,1.57-.42l3.1,1.09c.51.18,1.14-.05,1.42-.52l5.78-10.01c.27-.47.16-1.14-.25-1.49l-2.66-2.29c-.41-.35-.58-1.05-.43-1.57.64-2.24.78-5.17.72-7.25-.02-.54.31-1.23.75-1.54l7.18-5.05c.44-.31.8-1,.8-1.55l3.43-4.11.16-3.32ZM273.45,261.19c-7.33,4.23-11.89,1.23-11.89-7.24s6.06-18.84,13.39-23.07c7.33-4.23,11.77-1.15,11.77,7.31s-5.94,18.76-13.28,23Z"/>
        <path class="cls-15" d="M307.77,225.22l-3.87-2.23h0c-.16-.09-.37-.09-.61.01l-7,3.15c-.49.22-1-.02-1.17-.54-.41-1.29-.93-2.44-1.56-3.47-.28-.46-.35-1.21-.11-1.69l4.66-9.4c.24-.49.06-1.1-.41-1.37l-5.06-2.92c-.47-.27-1.09-.12-1.39.33l-5.81,8.74c-.3.45-.98.77-1.52.76-.66-.02-1.34.02-2.03.09v-6.39l-3.88-2.24h0c-.17-.09-.4-.08-.64.06l-7.86,4.54c-.47.27-.89.93-.94,1.47l-.79,8.74c-.05.54-.42,1.27-.82,1.63-1.53,1.41-2.99,2.96-4.37,4.62-.35.42-1.03.62-1.54.44l-5.04-1.76c-.51-.18-1.15.06-1.42.53l-5.78,10.01c-.27.47-.16,1.14.25,1.49l4.05,3.49c.41.35.58,1.05.39,1.56-.75,2.02-1.36,4.06-1.82,6.09-.12.53-.56,1.21-1.01,1.52l-7.18,5.05c-.44.31-.8,1-.8,1.55v9.07c0,.28.11.48.28.58h0s3.87,2.23,3.87,2.23l5.75-2.72c.22.47.46.92.72,1.34.28.46.35,1.21.11,1.69l-4.66,9.4c-.24.49-.06,1.1.41,1.37l5.06,2.92c.47.27,1.09.12,1.39-.33l5.81-8.74c.3-.45.98-.77,1.52-.76,1.2.03,2.47-.09,3.78-.38.53-.12,1,.2,1.05.74l.77,7.63c.03.26.14.44.3.54h0s3.86,2.23,3.86,2.23l4.64-6.82c.47-.27.89-.93.94-1.47l.79-8.74c.05-.54.51-1.11,1.01-1.32,2.24-.94,4.51-2.57,6.1-4.28.37-.4,1.05-.6,1.57-.42l3.1,1.09c.51.18,1.14-.05,1.42-.52l5.78-10.01c.27-.47.16-1.14-.25-1.49l-2.66-2.29c-.41-.35-.58-1.05-.43-1.57.64-2.24.78-5.17.72-7.25-.02-.54.31-1.23.75-1.54l7.18-5.05c.44-.31.8-1,.8-1.55l3.43-4.11.16-3.32ZM273.45,261.19c-7.33,4.23-11.89,1.23-11.89-7.24s6.06-18.84,13.39-23.07c7.33-4.23,11.77-1.15,11.77,7.31s-5.94,18.76-13.28,23Z"/>
        <g>
          <path class="cls-3" d="M296.58,214.16l1.54-3.11c.24-.49.06-1.1-.41-1.37l-5.06-2.92c-.47-.27-1.09-.12-1.39.33l-5.81,8.74c-.09.14-.23.26-.39.37l6.5,3.75,5.02-5.79Z"/>
          <path class="cls-3" d="M251.26,251.87c-.17.24-.36.45-.55.59l-7.18,5.05c-.18.13-.34.33-.47.54l4.38,2.53,9.53-5.42-5.7-3.29Z"/>
          <path class="cls-3" d="M255.62,227.72c-.4.02-.81.23-1.01.58l-5.78,10.01c-.13.22-.16.48-.13.73l4.98,2.88,7.91-10.7-5.97-3.5Z"/>
          <path class="cls-3" d="M268.74,213.59l6.16,3.56,7-4.04v-2.82l-3.88-2.24h0c-.17-.09-.4-.08-.64.06l-7.86,4.54c-.32.19-.61.56-.78.95Z"/>
          <path class="cls-3" d="M307.77,225.22h0c-.16-.1-.38-.1-.62,0l-7,3.15c-.49.22-1-.02-1.16-.54-.27-.88-.61-1.7-1-2.46l5.3-2.39c.24-.1.45-.1.61,0h0s3.88,2.23,3.88,2.23Z"/>
        </g>
        <g class="cls-9">
          <path class="cls-7" d="M296.58,214.16l1.54-3.11c.24-.49.06-1.1-.41-1.37l-5.06-2.92c-.47-.27-1.09-.12-1.39.33l-5.81,8.74c-.09.14-.23.26-.39.37l6.5,3.75,5.02-5.79Z"/>
          <path class="cls-7" d="M251.26,251.87c-.17.24-.36.45-.55.59l-7.18,5.05c-.18.13-.34.33-.47.54l4.38,2.53,9.53-5.42-5.7-3.29Z"/>
          <path class="cls-7" d="M255.62,227.72c-.4.02-.81.23-1.01.58l-5.78,10.01c-.13.22-.16.48-.13.73l4.98,2.88,7.91-10.7-5.97-3.5Z"/>
          <path class="cls-7" d="M268.74,213.59l6.16,3.56,7-4.04v-2.82l-3.88-2.24h0c-.17-.09-.4-.08-.64.06l-7.86,4.54c-.32.19-.61.56-.78.95Z"/>
          <path class="cls-7" d="M307.77,225.22h0c-.16-.1-.38-.1-.62,0l-7,3.15c-.49.22-1-.02-1.16-.54-.27-.88-.61-1.7-1-2.46l5.3-2.39c.24-.1.45-.1.61,0h0s3.88,2.23,3.88,2.23Z"/>
        </g>
        <path class="cls-3" d="M308.05,234.88v-9.08c0-.54-.4-.8-.89-.58l-7,3.15c-.49.22-1-.02-1.17-.54-.41-1.29-.93-2.44-1.56-3.47-.28-.46-.35-1.21-.11-1.69l4.66-9.4c.24-.49.06-1.1-.41-1.37l-5.06-2.92c-.47-.27-1.09-.12-1.39.33l-5.81,8.74c-.3.45-.98.77-1.52.76-1.2-.03-2.47.09-3.78.38-.53.12-1-.2-1.05-.74l-.77-7.63c-.05-.54-.48-.76-.95-.49l-7.86,4.54c-.47.27-.89.93-.94,1.47l-.79,8.74c-.05.54-.42,1.27-.82,1.63-1.53,1.41-2.99,2.96-4.37,4.62-.35.42-1.03.62-1.54.44l-5.05-1.76c-.51-.18-1.15.06-1.42.53l-5.78,10.01c-.27.47-.16,1.14.25,1.49l4.05,3.49c.41.35.58,1.05.39,1.56-.75,2.02-1.36,4.06-1.82,6.09-.12.53-.56,1.21-1.01,1.52l-7.18,5.05c-.44.31-.8,1-.8,1.55v9.07c0,.54.4.8.89.58l7-3.15c.49-.22,1,.02,1.17.54.41,1.29.93,2.44,1.56,3.47.28.46.35,1.21.11,1.7l-4.66,9.4c-.24.49-.06,1.1.41,1.37l5.06,2.92c.47.27,1.09.12,1.39-.33l5.81-8.74c.3-.45.98-.77,1.52-.76,1.2.03,2.47-.09,3.78-.38.53-.12,1,.2,1.05.74l.77,7.63c.05.54.48.76.95.49l7.86-4.54c.47-.27.89-.93.94-1.47l.79-8.74c.05-.54.42-1.27.82-1.63,1.53-1.41,2.99-2.96,4.36-4.62.35-.42,1.03-.62,1.54-.44l5.04,1.76c.51.18,1.15-.06,1.42-.53l5.78-10.01c.27-.47.16-1.14-.25-1.49l-4.05-3.49c-.41-.35-.58-1.05-.39-1.56.75-2.02,1.36-4.06,1.82-6.09.12-.53.56-1.21,1.01-1.52l7.18-5.05c.44-.31.8-1,.8-1.55ZM277.32,263.42c-7.33,4.23-13.28.8-13.28-7.67s5.94-18.76,13.28-23c7.33-4.23,13.28-.8,13.28,7.67s-5.94,18.76-13.28,23Z"/>
      </g>
      <g>
        <path class="cls-3" d="M269.08,296.35h0c-.19-.11-.43-.1-.68.07l-3.31,2.18c-.45.3-1.02.14-1.33-.3-.2-.29-.41-.55-.64-.79-.37-.39-.58-1.07-.39-1.57l5.26-3.33-3.92-2.26h0c-.08-.04-.16-.08-.26-.1l-2.49-.56c-.53-.12-1.16.17-1.41.65l-2.34,4.47c-.25.48-.89.93-1.42,1.07-.05.01-.1.03-.14.04.14-.42.21-1.04.21-1.04l-3.93-2.27h0c-.21-.12-.48-.1-.74.11l-3.74,2.94c-.43.33-.74,1.04-.71,1.58l.22,3.55c.03.54-.23,1.3-.58,1.72-.61.73-1.19,1.5-1.73,2.3-.31.45-.98.8-1.52.77l-2.4-.12c-.54-.03-1.16.35-1.38.85l-2.26,5.06c-.2.45-.03.97.39,1.22h0s2.66,1.54,2.66,1.54c.09.22.11.46.06.69-.18.81-.32,1.62-.42,2.41-.06.54-.41,1.27-.81,1.64l-3.31,3.04c-.4.37-.65,1.1-.56,1.63l.62,3.61c.04.24.15.4.3.49h0s3.95,2.28,3.95,2.28l.05-4.52c.45-.3,1.02-.14,1.33.3.2.29.41.55.64.79.37.39.58,1.07.39,1.58l-1.69,4.56c-.15.4,0,.81.33,1.01h0s3.94,2.28,3.94,2.28l1.07-2.94,1.52-3.78c.25-.48.89-.93,1.42-1.06.5-.13,1.01-.3,1.53-.51.5-.2,1.02.02,1.18.54l.84,2.8c.06.21.18.35.32.44h0s3.95,2.28,3.95,2.28l-.69-4.37,1.21-.95c.43-.33.74-1.04.71-1.58l-.22-3.55c-.03-.54.23-1.3.58-1.72.61-.73,1.54-1.12,2.08-1.92.31-.45.63-1.17,1.17-1.15l2.4.12c.54.03,1.16-.35,1.38-.85l2.26-5.06c.22-.49,0-1.07-.5-1.28l-1.94-.83c-.5-.21-.79-.81-.67-1.34.19-.81.32-1.62.42-2.41.06-.54.41-1.27.81-1.64l3.31-3.04c.28-.26.48-.7.55-1.13l3.01-2.34-3.92-2.26ZM254.05,319.69c-4.05,3.18-7.92,2.32-8.66-1.94-.73-4.25,2.58-9.65,6.63-12.84,4.05-3.18,7.3-2.94,8.03,1.31.73,4.25-1.96,10.28-6,13.46Z"/>
        <path class="cls-15" d="M269.08,296.35h0c-.19-.11-.43-.1-.68.07l-3.31,2.18c-.45.3-1.02.14-1.33-.3-.2-.29-.41-.55-.64-.79-.37-.39-.58-1.07-.39-1.57l5.26-3.33-3.92-2.26h0c-.08-.04-.16-.08-.26-.1l-2.49-.56c-.53-.12-1.16.17-1.41.65l-2.34,4.47c-.25.48-.89.93-1.42,1.07-.05.01-.1.03-.14.04.14-.42.21-1.04.21-1.04l-3.93-2.27h0c-.21-.12-.48-.1-.74.11l-3.74,2.94c-.43.33-.74,1.04-.71,1.58l.22,3.55c.03.54-.23,1.3-.58,1.72-.61.73-1.19,1.5-1.73,2.3-.31.45-.98.8-1.52.77l-2.4-.12c-.54-.03-1.16.35-1.38.85l-2.26,5.06c-.2.45-.03.97.39,1.22h0s2.66,1.54,2.66,1.54c.09.22.11.46.06.69-.18.81-.32,1.62-.42,2.41-.06.54-.41,1.27-.81,1.64l-3.31,3.04c-.4.37-.65,1.1-.56,1.63l.62,3.61c.04.24.15.4.3.49h0s3.95,2.28,3.95,2.28l.05-4.52c.45-.3,1.02-.14,1.33.3.2.29.41.55.64.79.37.39.58,1.07.39,1.58l-1.69,4.56c-.15.4,0,.81.33,1.01h0s3.94,2.28,3.94,2.28l1.07-2.94,1.52-3.78c.25-.48.89-.93,1.42-1.06.5-.13,1.01-.3,1.53-.51.5-.2,1.02.02,1.18.54l.84,2.8c.06.21.18.35.32.44h0s3.95,2.28,3.95,2.28l-.69-4.37,1.21-.95c.43-.33.74-1.04.71-1.58l-.22-3.55c-.03-.54.23-1.3.58-1.72.61-.73,1.54-1.12,2.08-1.92.31-.45.63-1.17,1.17-1.15l2.4.12c.54.03,1.16-.35,1.38-.85l2.26-5.06c.22-.49,0-1.07-.5-1.28l-1.94-.83c-.5-.21-.79-.81-.67-1.34.19-.81.32-1.62.42-2.41.06-.54.41-1.27.81-1.64l3.31-3.04c.28-.26.48-.7.55-1.13l3.01-2.34-3.92-2.26ZM254.05,319.69c-4.05,3.18-7.92,2.32-8.66-1.94-.73-4.25,2.58-9.65,6.63-12.84,4.05-3.18,7.3-2.94,8.03,1.31.73,4.25-1.96,10.28-6,13.46Z"/>
        <g>
          <path class="cls-3" d="M239.27,318.89l-3.27,3.01c-.24.22-.42.58-.5.94l4.86,2.81v-.26c.46-.3,1.02-.14,1.33.3,0,0,0,0,0,0l4.68-2.7-7.1-4.1Z"/>
          <path class="cls-3" d="M247.61,309.78c.37-.57.77-1.13,1.2-1.66l-4.66-2.69c-.23.09-.47.16-.69.15l-2.4-.12c-.34-.02-.71.13-.99.36l7.18,4.15.36-.17Z"/>
          <path class="cls-3" d="M273,298.61c-.18-.1-.42-.09-.67.08l-3.31,2.18c-.45.29-1.01.14-1.33-.3-.2-.29-.41-.55-.65-.79-.37-.39-.58-1.07-.39-1.58l.31-.84,1.42-.93c.25-.16.5-.18.69-.07h0s3.92,2.26,3.92,2.26Z"/>
          <path class="cls-3" d="M263.22,297.64s-.07-.09-.11-.13c-.37-.39-.58-1.07-.39-1.57l5.26-3.33-3.92-2.26h0c-.08-.04-.16-.08-.26-.1l-2.49-.56c-.53-.12-1.16.17-1.41.65l-2.34,4.47c-.11.22-.31.42-.53.6l5.3,3.06.92-.81Z"/>
          <path class="cls-3" d="M247.17,296.62l4.86,2.81,4-3.66c.11-.41.16-.9.16-.9l-3.93-2.27h0c-.21-.12-.48-.1-.74.11l-3.74,2.94c-.28.22-.5.59-.61.98Z"/>
        </g>
        <g class="cls-9">
          <path class="cls-7" d="M239.27,318.89l-3.27,3.01c-.24.22-.42.58-.5.94l4.86,2.81v-.26c.46-.3,1.02-.14,1.33.3,0,0,0,0,0,0l4.68-2.7-7.1-4.1Z"/>
          <path class="cls-7" d="M247.61,309.78c.37-.57.77-1.13,1.2-1.66l-4.66-2.69c-.23.09-.47.16-.69.15l-2.4-.12c-.34-.02-.71.13-.99.36l7.18,4.15.36-.17Z"/>
          <path class="cls-7" d="M273,298.61c-.18-.1-.42-.09-.67.08l-3.31,2.18c-.45.29-1.01.14-1.33-.3-.2-.29-.41-.55-.65-.79-.37-.39-.58-1.07-.39-1.58l.31-.84,1.42-.93c.25-.16.5-.18.69-.07h0s3.92,2.26,3.92,2.26Z"/>
          <path class="cls-7" d="M263.22,297.64s-.07-.09-.11-.13c-.37-.39-.58-1.07-.39-1.57l5.26-3.33-3.92-2.26h0c-.08-.04-.16-.08-.26-.1l-2.49-.56c-.53-.12-1.16.17-1.41.65l-2.34,4.47c-.11.22-.31.42-.53.6l5.3,3.06.92-.81Z"/>
          <path class="cls-7" d="M247.17,296.62l4.86,2.81,4-3.66c.11-.41.16-.9.16-.9l-3.93-2.27h0c-.21-.12-.48-.1-.74.11l-3.74,2.94c-.28.22-.5.59-.61.98Z"/>
        </g>
        <path class="cls-3" d="M273.93,302.72l-.62-3.61c-.09-.53-.53-.73-.99-.43l-3.31,2.18c-.45.3-1.02.14-1.33-.3-.2-.29-.41-.55-.64-.79-.37-.39-.58-1.07-.39-1.57l1.69-4.56c.19-.51-.09-1.02-.62-1.13l-2.49-.56c-.53-.12-1.16.17-1.41.65l-2.34,4.47c-.25.48-.89.93-1.42,1.06-.5.13-1.01.3-1.54.51-.5.2-1.02-.02-1.18-.54l-.84-2.8c-.16-.52-.63-.67-1.05-.33l-3.74,2.94c-.43.33-.74,1.04-.71,1.58l.22,3.55c.03.54-.23,1.3-.58,1.72-.61.73-1.19,1.5-1.73,2.3-.31.45-.98.8-1.52.77l-2.4-.12c-.54-.03-1.16.35-1.38.85l-2.26,5.06c-.22.49,0,1.07.5,1.28l1.94.83c.5.21.79.81.67,1.34-.18.81-.32,1.62-.42,2.41-.06.54-.41,1.27-.81,1.64l-3.31,3.04c-.4.37-.65,1.1-.56,1.63l.62,3.61c.09.53.53.73.99.43l3.31-2.18c.45-.3,1.02-.14,1.33.3.2.29.41.55.64.79.37.39.58,1.07.39,1.58l-1.69,4.56c-.19.51.09,1.02.62,1.13l2.49.56c.53.12,1.16-.17,1.41-.65l2.34-4.47c.25-.48.89-.93,1.42-1.06.5-.13,1.01-.3,1.53-.51.5-.2,1.02.02,1.18.54l.84,2.8c.16.52.63.67,1.05.33l3.74-2.94c.43-.33.74-1.04.71-1.58l-.22-3.55c-.03-.54.23-1.3.58-1.72.61-.73,1.19-1.5,1.73-2.3.31-.45.98-.8,1.52-.77l2.4.12c.54.03,1.16-.35,1.38-.85l2.26-5.06c.22-.49,0-1.07-.5-1.28l-1.94-.83c-.5-.21-.79-.81-.67-1.34.19-.81.32-1.62.42-2.41.06-.54.41-1.27.81-1.64l3.31-3.04c.4-.37.65-1.1.56-1.63ZM257.98,321.96c-4.05,3.18-7.92,2.32-8.66-1.94s1.96-10.28,6-13.46c4.05-3.18,7.92-2.32,8.66,1.94.73,4.25-1.96,10.28-6,13.46Z"/>
      </g>
      <g>
        <path class="cls-3" d="M236.92,289.72l-3.87-2.23h0c-.16-.09-.37-.09-.61.01l-7,3.15c-.49.22-1-.02-1.17-.54-.41-1.29-.93-2.44-1.56-3.47-.28-.46-.35-1.21-.11-1.69l4.66-9.4c.24-.49.06-1.1-.41-1.37l-5.06-2.92c-.47-.27-1.09-.12-1.39.33l-5.81,8.74c-.3.45-.98.77-1.52.76-.66-.02-1.34.02-2.03.09v-6.39l-3.88-2.24h0c-.17-.09-.4-.08-.64.06l-7.86,4.54c-.47.27-.89.93-.94,1.47l-.79,8.74c-.05.54-.42,1.27-.82,1.63-1.53,1.41-2.99,2.96-4.37,4.62-.35.42-1.03.62-1.54.44l-5.04-1.76c-.51-.18-1.15.06-1.42.53l-5.78,10.01c-.27.47-.16,1.14.25,1.49l4.05,3.49c.41.35.58,1.05.39,1.56-.75,2.02-1.36,4.06-1.82,6.09-.12.53-.56,1.21-1.01,1.52l-7.18,5.05c-.44.31-.8,1-.8,1.55v9.07c0,.28.11.48.28.58h0s3.87,2.23,3.87,2.23l5.75-2.72c.22.47.46.91.72,1.34.28.46.35,1.21.11,1.69l-4.66,9.4c-.24.49-.06,1.1.41,1.37l5.06,2.92c.47.27,1.09.12,1.39-.33l5.81-8.74c.3-.45.98-.77,1.52-.76,1.2.03,2.47-.09,3.78-.38.53-.12.99.2,1.05.74l.77,7.63c.03.26.14.44.3.54h0s3.86,2.23,3.86,2.23l4.64-6.82c.47-.27.89-.93.94-1.47l.79-8.74c.05-.54.51-1.11,1.01-1.32,2.24-.94,4.51-2.57,6.1-4.28.37-.4,1.05-.6,1.57-.42l3.1,1.09c.51.18,1.14-.05,1.42-.52l5.78-10.01c.27-.47.16-1.14-.25-1.49l-2.66-2.29c-.41-.35-.58-1.05-.43-1.57.64-2.24.78-5.17.72-7.25-.02-.54.31-1.23.75-1.54l7.18-5.05c.44-.31.8-1,.8-1.55l3.43-4.11.16-3.32ZM202.6,325.69c-7.33,4.23-11.89,1.23-11.89-7.24s6.06-18.84,13.39-23.07c7.33-4.23,11.77-1.15,11.77,7.31s-5.94,18.76-13.28,23Z"/>
        <path class="cls-15" d="M236.92,289.72l-3.87-2.23h0c-.16-.09-.37-.09-.61.01l-7,3.15c-.49.22-1-.02-1.17-.54-.41-1.29-.93-2.44-1.56-3.47-.28-.46-.35-1.21-.11-1.69l4.66-9.4c.24-.49.06-1.1-.41-1.37l-5.06-2.92c-.47-.27-1.09-.12-1.39.33l-5.81,8.74c-.3.45-.98.77-1.52.76-.66-.02-1.34.02-2.03.09v-6.39l-3.88-2.24h0c-.17-.09-.4-.08-.64.06l-7.86,4.54c-.47.27-.89.93-.94,1.47l-.79,8.74c-.05.54-.42,1.27-.82,1.63-1.53,1.41-2.99,2.96-4.37,4.62-.35.42-1.03.62-1.54.44l-5.04-1.76c-.51-.18-1.15.06-1.42.53l-5.78,10.01c-.27.47-.16,1.14.25,1.49l4.05,3.49c.41.35.58,1.05.39,1.56-.75,2.02-1.36,4.06-1.82,6.09-.12.53-.56,1.21-1.01,1.52l-7.18,5.05c-.44.31-.8,1-.8,1.55v9.07c0,.28.11.48.28.58h0s3.87,2.23,3.87,2.23l5.75-2.72c.22.47.46.91.72,1.34.28.46.35,1.21.11,1.69l-4.66,9.4c-.24.49-.06,1.1.41,1.37l5.06,2.92c.47.27,1.09.12,1.39-.33l5.81-8.74c.3-.45.98-.77,1.52-.76,1.2.03,2.47-.09,3.78-.38.53-.12.99.2,1.05.74l.77,7.63c.03.26.14.44.3.54h0s3.86,2.23,3.86,2.23l4.64-6.82c.47-.27.89-.93.94-1.47l.79-8.74c.05-.54.51-1.11,1.01-1.32,2.24-.94,4.51-2.57,6.1-4.28.37-.4,1.05-.6,1.57-.42l3.1,1.09c.51.18,1.14-.05,1.42-.52l5.78-10.01c.27-.47.16-1.14-.25-1.49l-2.66-2.29c-.41-.35-.58-1.05-.43-1.57.64-2.24.78-5.17.72-7.25-.02-.54.31-1.23.75-1.54l7.18-5.05c.44-.31.8-1,.8-1.55l3.43-4.11.16-3.32ZM202.6,325.69c-7.33,4.23-11.89,1.23-11.89-7.24s6.06-18.84,13.39-23.07c7.33-4.23,11.77-1.15,11.77,7.31s-5.94,18.76-13.28,23Z"/>
        <g>
          <path class="cls-3" d="M225.74,278.66l1.54-3.11c.24-.49.06-1.1-.41-1.37l-5.06-2.92c-.47-.27-1.09-.12-1.39.33l-5.81,8.74c-.09.14-.23.26-.39.37l6.5,3.75,5.02-5.79Z"/>
          <path class="cls-3" d="M180.41,316.38c-.17.24-.36.45-.55.59l-7.18,5.05c-.18.13-.34.33-.47.54l4.38,2.53,9.53-5.42-5.7-3.29Z"/>
          <path class="cls-3" d="M184.77,292.23c-.4.02-.81.23-1.01.58l-5.78,10.01c-.13.22-.16.48-.13.73l4.98,2.88,7.91-10.7-5.97-3.5Z"/>
          <path class="cls-3" d="M197.89,278.09l6.16,3.56,7-4.04v-2.82l-3.88-2.24h0c-.17-.09-.4-.08-.64.06l-7.86,4.54c-.32.19-.61.56-.78.95Z"/>
          <path class="cls-3" d="M236.92,289.73h0c-.16-.1-.38-.1-.62,0l-7,3.15c-.49.22-1-.02-1.16-.54-.27-.88-.61-1.7-1-2.46l5.3-2.39c.24-.1.45-.1.61,0h0s3.88,2.23,3.88,2.23Z"/>
        </g>
        <g class="cls-9">
          <path class="cls-7" d="M225.74,278.66l1.54-3.11c.24-.49.06-1.1-.41-1.37l-5.06-2.92c-.47-.27-1.09-.12-1.39.33l-5.81,8.74c-.09.14-.23.26-.39.37l6.5,3.75,5.02-5.79Z"/>
          <path class="cls-7" d="M180.41,316.38c-.17.24-.36.45-.55.59l-7.18,5.05c-.18.13-.34.33-.47.54l4.38,2.53,9.53-5.42-5.7-3.29Z"/>
          <path class="cls-7" d="M184.77,292.23c-.4.02-.81.23-1.01.58l-5.78,10.01c-.13.22-.16.48-.13.73l4.98,2.88,7.91-10.7-5.97-3.5Z"/>
          <path class="cls-7" d="M197.89,278.09l6.16,3.56,7-4.04v-2.82l-3.88-2.24h0c-.17-.09-.4-.08-.64.06l-7.86,4.54c-.32.19-.61.56-.78.95Z"/>
          <path class="cls-7" d="M236.92,289.73h0c-.16-.1-.38-.1-.62,0l-7,3.15c-.49.22-1-.02-1.16-.54-.27-.88-.61-1.7-1-2.46l5.3-2.39c.24-.1.45-.1.61,0h0s3.88,2.23,3.88,2.23Z"/>
        </g>
        <path class="cls-3" d="M237.2,299.39v-9.08c0-.54-.4-.8-.89-.58l-6.99,3.15c-.49.22-1-.02-1.17-.54-.41-1.29-.93-2.44-1.56-3.47-.28-.46-.35-1.21-.11-1.69l4.66-9.4c.24-.49.06-1.1-.41-1.37l-5.06-2.92c-.47-.27-1.09-.12-1.39.33l-5.81,8.74c-.3.45-.98.77-1.52.76-1.2-.03-2.47.09-3.78.38-.53.12-1-.2-1.05-.74l-.77-7.63c-.05-.54-.48-.76-.95-.49l-7.86,4.54c-.47.27-.89.93-.94,1.47l-.79,8.74c-.05.54-.42,1.27-.82,1.63-1.53,1.41-2.99,2.96-4.37,4.62-.35.42-1.03.62-1.54.44l-5.04-1.76c-.51-.18-1.15.06-1.42.53l-5.78,10.01c-.27.47-.16,1.14.25,1.49l4.05,3.49c.41.35.58,1.05.39,1.56-.75,2.02-1.36,4.06-1.82,6.09-.12.53-.56,1.21-1.01,1.52l-7.18,5.05c-.44.31-.8,1-.8,1.55v9.07c0,.54.4.8.89.58l6.99-3.15c.49-.22,1,.02,1.17.54.41,1.29.93,2.44,1.56,3.47.28.46.35,1.21.11,1.7l-4.66,9.4c-.24.49-.06,1.1.41,1.37l5.06,2.92c.47.27,1.09.12,1.39-.33l5.81-8.74c.3-.45.98-.77,1.52-.76,1.2.03,2.47-.09,3.78-.38.53-.12.99.2,1.05.74l.77,7.63c.05.54.48.76.95.49l7.86-4.54c.47-.27.89-.93.94-1.47l.79-8.74c.05-.54.42-1.27.82-1.63,1.53-1.41,2.99-2.96,4.36-4.62.35-.42,1.03-.62,1.54-.44l5.04,1.76c.51.18,1.15-.06,1.42-.53l5.78-10.01c.27-.47.16-1.14-.25-1.49l-4.05-3.49c-.41-.35-.58-1.05-.39-1.56.75-2.02,1.36-4.06,1.82-6.09.12-.53.56-1.21,1.01-1.52l7.18-5.05c.44-.31.8-1,.8-1.55ZM206.47,327.92c-7.33,4.23-13.28.8-13.28-7.67s5.94-18.76,13.28-23c7.33-4.23,13.28-.8,13.28,7.67s-5.94,18.76-13.28,23Z"/>
      </g>
    </g>
  </g>
  <g id="Character_2" data-name="Character 2">
    <g id="Character_girl" data-name="Character girl">
      <path class="cls-4" d="M327.69,129.35h32.65v-29.27c0-9.02-7.31-16.33-16.33-16.33h0c-9.02,0-16.33,7.31-16.33,16.33v29.27Z"/>
      <g>
        <g id="Girl_arm" data-name="Girl arm">
          <path class="cls-1" d="M337.96,121.41l-23.37.89c-.82-.7-5.44-6.21-5.44-6.21,0,0-12.7-1.63-12.78-1.17s12.49,13.9,13.73,15.26c.69.75,1.32,1.35,2.97,1.45,3.29.2,21.39,1.34,21.39,1.34l3.49-11.55Z"/>
        </g>
        <g id="Tab-2" data-name="Tab">
          <g>
            <path class="cls-3" d="M217.59,226.74l-.7-.4c-1.11-.64-2.02-2.21-2.02-3.49v-71.8c0-1.29.9-2.85,2.02-3.49l92.22-53.24c1.11-.64,2.92-.64,4.03,0l.7.4c1.11.64,2.02,2.21,2.02,3.49v71.8c0,1.29-.9,2.85-2.02,3.49l-92.22,53.24c-1.11.64-2.92.64-4.03,0Z"/>
            <path class="cls-8" d="M315.84,97.89c-.14-1.05-.98-1.43-2-.84l-92.22,53.24c-.56.32-1.06.88-1.43,1.5l-4.72-2.72c.36-.63.87-1.18,1.43-1.51l92.21-53.23c1.12-.64,2.93-.64,4.03,0l.7.4c1.01.59,1.87,1.95,2,3.17Z"/>
            <path class="cls-15" d="M221.28,226.9c-1.11.48-2.68.42-3.69-.16l-.71-.4c-1.11-.64-2.01-2.21-2.01-3.5v-71.79c0-.64.22-1.36.59-1.99l4.72,2.72c-.36.63-.59,1.35-.59,1.99v71.81c0,1.15.73,1.69,1.68,1.32Z"/>
          </g>
          <g>
            <path class="cls-2" d="M228.93,154.25l6.94-4c.51-.29.91-.06.91.53v7.8c0,.58-.41,1.29-.92,1.58l-6.93,3.91c-.51.29-.92.05-.92-.54v-7.69c0-.58.41-1.29.91-1.58Z"/>
            <path class="cls-6" d="M234.96,159.03c-.23.13-.45.14-.6.03l-2.14-1.62c-.29-.22-.25-.81.08-1.34.33-.52.83-.77,1.12-.55l1.49,1.13,4.15-8.92c.26-.56.75-.93,1.11-.84.35.1.43.62.17,1.18l-4.74,10.18c-.14.31-.37.57-.61.72-.01,0-.02.01-.03.02Z"/>
          </g>
          <g>
            <path class="cls-2" d="M228.93,171.24l6.94-4c.51-.29.91-.06.91.53v7.8c0,.58-.41,1.29-.92,1.58l-6.93,3.91c-.51.29-.92.05-.92-.54v-7.69c0-.58.41-1.29.91-1.58Z"/>
            <path class="cls-6" d="M234.96,176.02c-.23.13-.45.14-.6.03l-2.14-1.62c-.29-.22-.25-.81.08-1.34.33-.52.83-.77,1.12-.55l1.49,1.13,4.15-8.92c.26-.56.75-.93,1.11-.84.35.1.43.62.17,1.18l-4.74,10.18c-.14.31-.37.57-.61.72-.01,0-.02.01-.03.02Z"/>
          </g>
          <g>
            <path class="cls-2" d="M228.93,188.23l6.94-4c.51-.29.91-.06.91.53v7.8c0,.58-.41,1.29-.92,1.58l-6.93,3.91c-.51.29-.92.05-.92-.54v-7.69c0-.58.41-1.29.91-1.58Z"/>
            <path class="cls-6" d="M234.96,193.02c-.23.13-.45.14-.6.03l-2.14-1.62c-.29-.22-.25-.81.08-1.34.33-.52.83-.77,1.12-.55l1.49,1.13,4.15-8.92c.26-.56.75-.93,1.11-.84.35.1.43.62.17,1.18l-4.74,10.18c-.14.31-.37.57-.61.72-.01,0-.02.01-.03.02Z"/>
          </g>
          <g>
            <path class="cls-2" d="M228.93,205.27l6.94-4c.51-.29.91-.06.91.53v7.8c0,.58-.41,1.29-.92,1.58l-6.93,3.91c-.51.29-.92.05-.92-.54v-7.69c0-.58.41-1.29.91-1.58Z"/>
            <path class="cls-6" d="M234.96,210.06c-.23.13-.45.14-.6.03l-2.14-1.62c-.29-.22-.25-.81.08-1.34.33-.52.83-.77,1.12-.55l1.49,1.13,4.15-8.92c.26-.56.75-.93,1.11-.84.35.1.43.62.17,1.18l-4.74,10.18c-.14.31-.37.57-.61.72-.01,0-.02.01-.03.02Z"/>
          </g>
          <path class="cls-11" d="M245.36,146.93c0,.94.82,1.24,1.83.65l26.37-15.22c1.01-.58,1.83-1.82,1.83-2.76s-.82-1.24-1.83-.65l-26.37,15.23c-1.01.58-1.83,1.82-1.83,2.76Z"/>
          <path class="cls-5" d="M245.36,152.66c0,.94.82,1.24,1.83.65l56.4-32.52c1.01-.58,1.83-1.82,1.83-2.76s-.82-1.24-1.83-.65l-56.4,32.52c-1.01.58-1.83,1.82-1.83,2.76Z"/>
          <path class="cls-11" d="M245.36,163.55c0,.94.82,1.24,1.83.65l26.37-15.22c1.01-.58,1.83-1.82,1.83-2.76s-.82-1.24-1.83-.65l-26.37,15.23c-1.01.58-1.83,1.82-1.83,2.76Z"/>
          <path class="cls-5" d="M245.36,169.28c0,.94.82,1.24,1.83.65l56.4-32.52c1.01-.58,1.83-1.82,1.83-2.76s-.82-1.24-1.83-.65l-56.4,32.52c-1.01.58-1.83,1.82-1.83,2.76Z"/>
          <path class="cls-11" d="M245.36,181.24c0,.94.82,1.24,1.83.65l26.37-15.23c1.01-.58,1.83-1.82,1.83-2.76s-.82-1.24-1.83-.65l-26.37,15.23c-1.01.58-1.83,1.82-1.83,2.76Z"/>
          <path class="cls-5" d="M245.36,186.96c0,.94.82,1.24,1.83.65l56.4-32.52c1.01-.58,1.83-1.82,1.83-2.76s-.82-1.24-1.83-.65l-56.4,32.52c-1.01.58-1.83,1.82-1.83,2.76Z"/>
          <path class="cls-11" d="M245.36,198.92c0,.94.82,1.24,1.83.65l26.37-15.23c1.01-.58,1.83-1.82,1.83-2.76s-.82-1.24-1.83-.65l-26.37,15.23c-1.01.58-1.83,1.82-1.83,2.76Z"/>
          <path class="cls-5" d="M245.36,204.64c0,.94.82,1.24,1.83.65l56.4-32.52c1.01-.58,1.83-1.82,1.83-2.76s-.82-1.24-1.83-.65l-56.4,32.52c-1.01.58-1.83,1.82-1.83,2.76Z"/>
        </g>
      </g>
      <g>
        <path class="cls-4" d="M327.4,280.18c-1.88,2.06-3.96,3.72-6.19,5.39-.33.25-.68.51-.86.89-.29.61-.75,2.11,2.02,3.08,2.71.94,6.08.72,8.55-.82,2.27-1.42,2.38-4.39,4.52-6.07,1.59-1.25,3.58-1.57,4.86-3.21.89-1.14.66-2.65.2-4.53-.51-2.05-.74-3.6-1.42-3.44l.11.94c-.84,1.35-5.23,1.75-7.18.82,0,0-3.38,5.61-4.61,6.96Z"/>
        <path class="cls-1" d="M325.48,282.09s0-.01,0-.01c.66-.6,1.3-1.23,1.92-1.9.79-.87,2.48-3.51,3.58-5.27.67-1.07,1.15-2.36,1-3.77-.15-1.42-.55-5.05-.55-5.05l6.94-.49.81,6.81h0c.17,1.54-1.11,2.91-3.37,4.86-2.26,1.95-5.13,6.49-7.17,7.63-2.05,1.14-3.51,1.1-4.38.52-.9-.6-.99-1.06,1.22-3.31Z"/>
        <path class="cls-4" d="M358.59,280.8v-1.04c-.41,1.22-2.32,6.49-5.22,9.13-2.3,2.1-5.44,4.52-6.24,6.87-.83,2.43,4.37,3.25,6.52,2.87,2.5-.44,5.73-1.86,7.49-4.02,1.24-1.52,2.02-3.32,2.91-4.52.88-1.2,2.92-2.53,3.4-3.91.26-.76-.05-2.42-.42-3.83-.34-1.29-.7-2.71-1.15-2.59,0,.16,0,.8,0,.8-.53.59-2,1.17-3.65,1.23-1.07.04-3.66-.17-3.65-.99Z"/>
        <path class="cls-1" d="M351.29,290.74c.71-.64,1.43-1.26,2.08-1.85,2.02-1.85,3.56-4.97,4.45-7.11.51-1.22.77-2.52.77-3.84v-4.16h7.3v6.77h0s0,0,0,0v.18l-.04.02c-.35,1.52-3.7,5.55-5.6,8.18-1.28,1.76-3.7,4.01-6.59,4.39-2.74.37-4.15-.5-2.36-2.58Z"/>
        <path class="cls-3" d="M364.43,167.39c5.66,12.36-.2,55.88-.2,55.88.17,2.01,2.46,5.95,3.32,14.78,1.01,10.43-1.58,36.61-1.58,36.61,0,0-3.38,2.21-7.37.29,0,0-6.95-39.43-8.26-49.8-1.14-9.05-3.33-30.32-3.33-30.32l-6.57,30.33s1.35,4.95,1.28,8.98c-.1,6.13-2.96,32.96-2.96,32.96,0,0-2.54,1.49-7.32.78,0,0-4.6-35.27-4.47-43.49.07-4.4,1.99-51.24,1.99-51.24l35.48-5.78Z"/>
        <g class="cls-12">
          <path class="cls-4" d="M346.99,194.83l-1.84-10.1s-7.77-1.61-11.29-4.92c0,0,3.7,4.6,9.19,6.11l2.06,8.84-3.73,26,5.61-25.92Z"/>
        </g>
      </g>
      <g>
        <path class="cls-4" d="M347.67,84.75l.38-4.28c-1.2-.15-2.26.69-2.36,1.88-.1,1.18.79,2.26,1.99,2.4Z"/>
        <path class="cls-4" d="M347.9,85.18l3.47-2.54c-.68-1-2.01-1.24-2.97-.54-.96.7-1.18,2.08-.5,3.08Z"/>
        <path class="cls-6" d="M351.5,121.72s8.33.72,9.51,1.25c-5.98,6.55,3.11,9.26,3.11,9.26l-6.23,22.29c3.74,5.7,6.12,10.12,7.53,15.74-4.2,7.41-27.82,8.43-36.47,2.92.75-10.34,2.43-17.74,1.87-20.84-2.95-12.68-2.84-15.35-2.45-18.25.76-5.66,6.37-10.6,9.59-12.67h3l10.54.31Z"/>
        <path class="cls-1" d="M334.56,91.73c-1.76,1.04-3.93,5.46-3.72,14.74.18,7.86,2.73,9.8,4.01,10.36,1.28.56,3.75.22,6.15-.18v4.72s-3.32,3.85-3.11,6.01c.21,2.16,4.79,2.67,7.89.56,3.1-2.11,5.72-6.23,5.72-6.23l-.05-10.85s1.41,1.37,3.81-.72c1.98-1.73,2.64-4.64,1.1-6.21-1.54-1.56-4.39-1.14-5.48,1.09-.66,1.43-2.16,1.45-2.17-.18-.07-8.36-1.06-8.81-1.9-12.23-4.99-1.63-8.57-1.03-12.24-.89Z"/>
        <path class="cls-4" d="M339.62,104.5c-.03.57.39,1.05.94,1.07.55.03,1.01-.41,1.04-.98.03-.57-.39-1.05-.94-1.07-.55-.03-1.01.41-1.04.98Z"/>
        <path class="cls-13" d="M339.36,111.16l-2.3.73c.19.66.86,1.03,1.49.82.63-.2.99-.9.8-1.56Z"/>
        <path class="cls-4" d="M331.68,101.88l2-1.39c-.36-.57-1.11-.72-1.66-.34-.55.38-.7,1.16-.34,1.73Z"/>
        <path class="cls-4" d="M342.5,102.19l-2-1.39c.36-.57,1.11-.72,1.66-.34.55.38.7,1.16.34,1.73Z"/>
        <path class="cls-4" d="M331.98,103.78c-.03.57.39,1.05.94,1.07.55.03,1.01-.41,1.04-.98.03-.57-.39-1.05-.94-1.07-.55-.03-1.01.41-1.04.98Z"/>
        <polygon class="cls-13" points="336.64 103.22 336.48 109.17 333.35 108.2 336.64 103.22"/>
        <path class="cls-13" d="M341,116.66c2.53-.33,7.73-1.83,8.54-3.88,0,0-.27,1.29-1.82,2.62-1.55,1.33-6.72,2.83-6.72,2.83v-1.57Z"/>
        <path class="cls-4" d="M339.77,84.84h0c-7.57,0-13.71,6.14-13.71,13.71v1.78h6.71c3.12,0,5.76-2.31,6.18-5.4h0l.25,5.4h0c2.57,0,4.72-1.97,4.94-4.53l.08-.88h0c.24,3.06,2.8,5.41,5.86,5.41h.59l.69-9.68-11.6-5.8Z"/>
      </g>
      <path class="cls-1" d="M355.55,126.63c-1.87,2.75-12.47,26-12.47,26,0,0-15.99-1.08-22.76-1.8-2.13-.23-1.66-2.51-2.51-4.78-.86-2.26-1.94-1.82-1.94-1.82v3.02c.07,2.03-3.28,3.12-4.71,3.68-2.36.92-4.95,1.51-7.39,2.26-.83.26-1.72.57-2.17,1.31-.4.67-.3,1.56.07,2.24,1.11,1.99,3.26,3.09,5.47,3.36,2.72.32,5.36-.46,8.01-.93,3.13-.56,5.52-1,8.62-.59,2.98.4,6.86,1.22,9.81,1.75,3.4.62,8.46,1.2,11.42,1.33,2.14.09,3.68-.32,5.53-2.93,1.85-2.6,11.98-23.53,11.98-23.53,4.23-6.02,1.8-11.08-1.34-12.16-1.97-.67-3.76.83-5.63,3.58Z"/>
      <path class="cls-1" d="M290.97,104.23c.81.11,1.61.31,2.37.58,1.95.69,3.7,1.99,4.78,3.75.48.78.7,1.95.58,2.85-.03.26-.09.51-.22.73-.24.42-.69.67-1.12.9-1.77.96-3.02,1.04-4.81.07-1.98-1.07-4-2.13-6.16-2.78-1.08-.32-2.2-.54-3.33-.59-.74-.03-1.16.29-1.78.65-.4-1.02-.18-1.8.45-2.68,1.07-1.5,2.69-2.58,4.45-3.13,1.54-.48,3.19-.58,4.79-.36Z"/>
    </g>
  </g>
  <g id="Character_1" data-name="Character 1">
    <g>
      <g>
        <circle class="cls-4" cx="114.07" cy="162.62" r="10.49"/>
        <rect class="cls-1" x="88.96" y="340.04" width="7.39" height="12.64" transform="translate(185.3 692.72) rotate(180)"/>
        <polygon class="cls-1" points="114.57 339.36 121.95 339.62 122.32 326.24 114.57 325.98 114.57 339.36"/>
        <path class="cls-6" d="M89.44,231.67c0,7.05-.91,57.93-.91,57.93-.17,2.03-2.07,5.77-1.66,13.57.56,10.59,1.77,43.19,1.77,43.19,0,0,3.59,2.1,8.22.16,0,0,6.52-43.32,7.84-53.81,1.15-9.16,3.11-34.04,3.11-34.04l4,29.9s-1.36,5.46-.92,11.74c.35,4.85,3.19,34.91,3.19,34.91,0,0,3.48,2.36,8.53.65,0,0,3.73-42.84,3.82-47.3.1-5.08-2.46-56.9-2.46-56.9h-34.54Z"/>
        <path class="cls-3" d="M122.97,188.75c4.33,3.56,12.15,10.78,12.15,10.78l-12.21,6.72-7.75-20.82s3.04-.6,7.8,3.31Z"/>
        <path class="cls-15" d="M122.97,188.75c4.33,3.56,12.15,10.78,12.15,10.78l-12.21,6.72-7.75-20.82s3.04-.6,7.8,3.31Z"/>
        <path class="cls-3" d="M91.95,190.51s-2.76,2.77-2.76,9.47v14.47l-.21,27.33c10.6,5.59,23.99,5.91,35.3-2.35,0,0-.54-35.12-.54-40.88s-3.21-13.23-12.03-13.74l-11.39,2.65-8.36,3.06Z"/>
        <g>
          <g>
            <path class="cls-4" d="M95.94,170.08s1.7,7.98,2.38,9.29c.68,1.31,2.09,1.68,2.09,1.68l-.12-5.62-4.35-5.36Z"/>
            <path class="cls-4" d="M98.07,158.64s-1.83-.31-3.26,1.14c-1.4,1.43-.62,5.91,1.12,10.29l3.2.37-1.07-11.8Z"/>
            <path class="cls-1" d="M100.1,170.45c-.64.38-1.56-.85-2.35-1.68-.79-.83-3.38-1.96-4.66.76-1.31,2.77,1.14,6.42,3.17,7.06,3.51,1.1,4.03-1.15,4.03-1.15l.27,12.64s3.02,4.99,10.79,6.2c3.97.62,4.94-3.25.61-6.53v-3.85s3.17.48,4.72.24c2.58-.4,4.2-2.43,4.98-5.22,1.26-4.48,1.73-8.1.67-16.92-1.17-9.66-12.41-9.76-18.47-5.94-6.07,3.82-3.75,14.38-3.75,14.38Z"/>
            <path class="cls-4" d="M100.1,171.53c-.32,0-1.55-2.03-2.35-2.76-1.11-1.01.32-10.13.32-10.13,0,0-1.06-2.27,1.07-4.61,1.52-1.67,4.05-1.85,8.38-2.53,2.27-.36,5.71-.99,7.98-1.41,2.71-.5,4.95-1.04,6.86.62,1.49,1.29,2.13,3.58,1.33,5.38-.19.42-.46.8-.77,1.15-.55.61-1.17,1.09-1.95,1.34,0,0-1.18,1.05-5.29,1.55-4.11.5-10.5-.1-11.38-.22-1.19-.16-1.44.99-2.09,4.14-.56,2.77-1.03,7.46-2.12,7.48Z"/>
            <path class="cls-4" d="M98.08,159.35l-3.88-2.08c.55-1.11,1.87-1.55,2.94-.97,1.07.58,1.49,1.94.94,3.05Z"/>
            <path class="cls-13" d="M111.96,183.9s-5.75-1.16-7.77-2.23c-1.35-.72-2.46-1.96-2.78-2.75,0,0,.38,1.71,1.58,3.25,1.47,1.88,8.97,3.27,8.97,3.27v-1.53Z"/>
          </g>
          <g>
            <path class="cls-4" d="M110.57,169.01c0,.66-.52,1.2-1.15,1.2-.64,0-1.15-.54-1.15-1.2s.52-1.2,1.15-1.2c.64,0,1.15.54,1.15,1.2Z"/>
            <path class="cls-4" d="M109.35,164.65l-2.47,1.36c-.36-.71-.11-1.59.57-1.96.68-.38,1.53-.11,1.89.6Z"/>
            <path class="cls-13" d="M111.43,176.97l2.63.99c-.26.75-1.06,1.15-1.79.87-.73-.27-1.11-1.11-.84-1.86Z"/>
            <path class="cls-4" d="M120.86,165.61l-2.25-1.73c.46-.64,1.33-.78,1.96-.3.62.48.75,1.39.29,2.03Z"/>
            <path class="cls-4" d="M120.16,168.68c0,.66-.52,1.2-1.15,1.19-.64,0-1.15-.54-1.15-1.2s.52-1.2,1.15-1.19c.64,0,1.15.54,1.15,1.2Z"/>
            <polygon class="cls-13" points="114.29 167.59 114.67 174.52 118.29 173.29 114.29 167.59"/>
          </g>
        </g>
        <path class="cls-4" d="M96.34,349.04v-1.06c.71.31,2.35,6.57,5.28,9.25,2.33,2.12,5.51,4.58,6.32,6.95.84,2.46-4.43,3.82-6.6,3.44-2.53-.45-6.91-2.23-8.01-3.88-1.1-1.65-1.62-4.09-2.51-5.3s-2.96-2.56-3.44-3.96c-.27-.77.05-2.45.42-3.88.34-1.31.71-2.74,1.16-2.62,0,.16,0,.81,0,.81.54.59,2.02,1.18,3.69,1.25,1.08.04,3.7-.17,3.69-1Z"/>
        <path class="cls-4" d="M122.03,337.34c.38.01.7.55,1.54,1.47,1.02,1.11,2.69,2.3,4.34,3.13,2.77,1.38,8.14,3.51,10.58,4.61,1.52.68,1.45,2.52-.12,3.57-1.57,1.05-5.37,1.8-9.92.78-2.48-.56-5.71-2.85-7.76-2.72-2.04.12-5.87.09-7.38-.95-1.51-1.04-.91-3.26-.48-5.17.47-2.08,1.05-5.33,1.74-5.19v.72c.89,1.34,5.47,1.89,7.42.9l.04-1.14Z"/>
        <path class="cls-4" d="M107.82,258.68s5.9-1.66,10.28-5.9c0,0-1.98,3.72-7.89,7.17l1.26,26.06-3.66-27.34Z"/>
      </g>
      <g>
        <path class="cls-14" d="M117.03,286.66l-.7-.4c-1.11-.64-2.02-2.21-2.02-3.49v-71.8c0-1.29.9-2.85,2.02-3.49l62.18-35.9c1.11-.64,2.92-.64,4.03,0l.7.4c1.11.64,2.02,2.21,2.02,3.49v71.8c0,1.29-.9,2.85-2.02,3.49l-62.18,35.9c-1.11.64-2.92.64-4.03,0Z"/>
        <g>
          <path class="cls-11" d="M150.98,200.86c10.78-6.22,19.51-1.18,19.51,11.26s-8.74,27.57-19.51,33.79c-10.78,6.22-19.51,1.18-19.51-11.26s8.74-27.57,19.51-33.79Z"/>
          <path class="cls-3" d="M150.84,210.65c3.5-2.02,6.33-.38,6.33,3.65s-2.83,8.95-6.33,10.96c-3.5,2.02-6.33.38-6.33-3.65s2.83-8.95,6.33-10.96Z"/>
          <path class="cls-3" d="M163.32,232.17c0-6.63-4.66-9.32-10.4-6l-3.59,2.07c-5.74,3.32-10.4,11.38-10.4,18.01v1.78c3.32,1.1,7.5.5,12.05-2.12,4.68-2.7,8.98-7.09,12.34-12.2v-1.54Z"/>
        </g>
        <path class="cls-2" d="M185.24,175.15c-.14-1.05-.98-1.43-2-.84l-62.18,35.91c-.56.32-1.06.88-1.43,1.5l-4.72-2.72c.36-.63.87-1.18,1.43-1.51l62.17-35.9c1.12-.64,2.93-.64,4.03,0l.7.4c1.01.59,1.87,1.95,2,3.17Z"/>
        <path class="cls-10" d="M120.72,286.82c-1.11.48-2.68.42-3.69-.16l-.71-.4c-1.11-.64-2.01-2.21-2.01-3.5v-71.79c0-.64.22-1.36.59-1.99l4.72,2.72c-.36.63-.59,1.35-.59,1.99v71.81c0,1.15.73,1.69,1.68,1.32Z"/>
        <path class="cls-3" d="M129.53,268.76v.04c0,2.04,1.43,2.87,3.2,1.85l36.5-21.07c1.77-1.02,3.2-3.5,3.2-5.54v-.04c0-2.04-1.43-2.87-3.2-1.85l-36.5,21.07c-1.77,1.02-3.2,3.5-3.2,5.54Z"/>
      </g>
      <g>
        <path class="cls-1" d="M80.1,233.75c-3.79-2.63-3.74-6.56-2.53-11.04,8.25-30.5,10.77-30.66,14.38-32.2l2.89,12-7.71,24.99c5.77,4.1,11.71,6.88,17.25,8.09.98.21,2.97.09,3.85-.4,2.35-1.32,3.68-1.32,6.08-1.97v3.93s2.8.47,6.47-.22c4.98-.93,7.17.1,4.12,5.81-1.91,3.57-5.62,4.75-14.92,3.15-2.68-.46-6.75-1.5-10.01-2.61-8.5-2.88-15.76-6.68-19.86-9.53Z"/>
        <path class="cls-3" d="M91.95,190.51s3.55,2.23,4.31,7.82c.76,5.59-4.62,20.8-4.62,20.8,0,0-8.69-.83-12.3-5.11,0,0,5.02-13.9,5.97-17.04,1.5-4.99,5.27-5.96,6.64-6.46Z"/>
        <path class="cls-15" d="M91.95,190.51s3.55,2.23,4.31,7.82c.76,5.59-4.62,20.8-4.62,20.8,0,0-8.69-.83-12.3-5.11,0,0,5.02-13.9,5.97-17.04,1.5-4.99,5.27-5.96,6.64-6.46Z"/>
      </g>
      <path class="cls-1" d="M185.26,192.47v4.44s-2.41,3.66-4.98,5c-2.58,1.34-2.56,6.74.65,7.5,3.22.76,7.62-3.2,8-5.38.37-2.18-.44-11.79-3.67-11.56Z"/>
    </g>
  </g>
</svg>